<?xml version="1.0" encoding="UTF-8"?>
<svg version="1.1" xmlns="http://www.w3.org/2000/svg" width="624" height="624">
<path d="M0 0 C0.84812256 0.67023193 0.84812256 0.67023193 1.71337891 1.35400391 C10.46444378 8.33109726 18.38459011 16.181089 26.3125 24.0625 C26.82483185 24.56947418 27.3371637 25.07644836 27.86502075 25.5987854 C34.71184284 32.39124039 41.04806811 39.39322011 47 47 C47.95338257 48.21079224 47.95338257 48.21079224 48.92602539 49.44604492 C57.79740765 60.82866027 65.83187349 72.47833205 73 85 C73.48033691 85.82661133 73.96067383 86.65322266 74.45556641 87.50488281 C115.9383211 159.24644035 126.14840863 245.53228849 104.99609375 325.39501953 C93.32525549 367.63315622 73.2692853 405.83800436 46 440 C45.55317871 440.56541504 45.10635742 441.13083008 44.64599609 441.71337891 C37.66890274 450.46444378 29.818911 458.38459011 21.9375 466.3125 C21.43052582 466.82483185 20.92355164 467.3371637 20.4012146 467.86502075 C13.60875961 474.71184284 6.60677989 481.04806811 -1 487 C-1.80719482 487.63558838 -2.61438965 488.27117676 -3.44604492 488.92602539 C-14.82866027 497.79740765 -26.47833205 505.83187349 -39 513 C-40.23991699 513.72050537 -40.23991699 513.72050537 -41.50488281 514.45556641 C-113.24644035 555.9383211 -199.53228849 566.14840863 -279.39501953 544.99609375 C-321.63315622 533.32525549 -359.83800436 513.2692853 -394 486 C-394.56541504 485.55317871 -395.13083008 485.10635742 -395.71337891 484.64599609 C-404.46444378 477.66890274 -412.38459011 469.818911 -420.3125 461.9375 C-420.82483185 461.43052582 -421.3371637 460.92355164 -421.86502075 460.4012146 C-428.71184284 453.60875961 -435.04806811 446.60677989 -441 439 C-441.95338257 437.78920776 -441.95338257 437.78920776 -442.92602539 436.55395508 C-451.79740765 425.17133973 -459.83187349 413.52166795 -467 401 C-467.48033691 400.17338867 -467.96067383 399.34677734 -468.45556641 398.49511719 C-509.9383211 326.75355965 -520.14840863 240.46771151 -498.99609375 160.60498047 C-487.32525549 118.36684378 -467.2692853 80.16199564 -440 46 C-439.55317871 45.43458496 -439.10635742 44.86916992 -438.64599609 44.28662109 C-431.66890274 35.53555622 -423.818911 27.61540989 -415.9375 19.6875 C-415.43052582 19.17516815 -414.92355164 18.6628363 -414.4012146 18.13497925 C-407.60875961 11.28815716 -400.60677989 4.95193189 -393 -1 C-392.19280518 -1.63558838 -391.38561035 -2.27117676 -390.55395508 -2.92602539 C-379.17133973 -11.79740765 -367.52166795 -19.83187349 -355 -27 C-354.17338867 -27.48033691 -353.34677734 -27.96067383 -352.49511719 -28.45556641 C-254.86057407 -84.91029 -131.5589987 -82.72057241 0 0 Z " fill="#EF3A36" transform="translate(509,69)"/>
<path d="M0 0 C-1.16402344 0.56654297 -1.16402344 0.56654297 -2.3515625 1.14453125 C-11.41431456 5.7624252 -19.31064084 11.33665728 -27 18 C-27 18.33 -27 18.66 -27 19 C-26.16082031 18.25556641 -26.16082031 18.25556641 -25.3046875 17.49609375 C-6.71161218 1.74279682 15.26959572 -2.58890533 39 -1 C44.82943454 -0.2303519 50.39202354 1.26376565 56 3 C56.91652344 3.27714844 57.83304687 3.55429688 58.77734375 3.83984375 C81.74680863 11.9182455 98.01025501 31.46147941 108.5 52.625 C117.09852032 73.10372442 118.5797707 97.24313094 110.15429688 118.09277344 C100.66455486 139.94335777 85.47495582 154.45370872 64.4609375 165.1015625 C62 166 62 166 59 165 C59.68964844 164.64808594 60.37929687 164.29617188 61.08984375 163.93359375 C71.19731596 158.62335801 86.45854676 149.99379117 91 139 C90.43925781 139.73605469 89.87851563 140.47210938 89.30078125 141.23046875 C77.22318085 155.76870081 56.91514768 165.0523067 38.29443359 166.82788086 C13.70196207 168.67270874 -7.88249705 163.1475138 -27 147 C-45.32587409 130.64384571 -56.45309805 107.50439561 -58.13720703 83.00390625 C-59.35954664 61.35980075 -52.60107194 40.60535225 -38.625 23.9296875 C-31.3433065 15.80279743 -12.19474888 -4.06491629 0 0 Z " fill="#FEFCFA" transform="translate(76,234)"/>
<path d="M0 0 C2.80828306 3.16831935 3.87956196 5.18704324 4.5 9.375 C3.77594238 14.62441775 2.25258247 18.92660023 -1.71875 22.58203125 C-6.89490654 26.38738362 -11.5041594 27.6927154 -18 27 C-20.5 25.9375 -20.5 25.9375 -22 24 C-22.25 20.3125 -22.25 20.3125 -22 17 C-21.34 17.33 -20.68 17.66 -20 18 C-16.58461856 18.58369443 -16.58461856 18.58369443 -13 18 C-9.6114453 14.6114453 -8.76188305 11.84387916 -8.6875 7.1875 C-8.60282391 4.2935306 -8.60282391 4.2935306 -10 2 C-12.32828629 1.41389629 -12.32828629 1.41389629 -15 2 C-21.21139246 7.91561187 -23.15447948 14.3254225 -23.4375 22.75 C-23.50539646 26.57030773 -23.53418562 28.31318991 -21.16796875 31.35546875 C-19.02472467 33.23948401 -19.02472467 33.23948401 -15.875 33.5625 C-7.45894951 32.34081525 -1.33531406 28.26762951 4.06640625 21.80078125 C6.8000484 17.84114202 8.90058759 13.62210313 11.05981445 9.33007812 C14.15649411 3.33126658 17.41727009 -0.8057567 24 -3 C31.06408952 -3.56968464 31.06408952 -3.56968464 34.875 -1.25 C38.12970771 2.19616111 39.21094284 5.05735224 39.625 9.75 C39.73714844 10.94882812 39.73714844 10.94882812 39.8515625 12.171875 C39.90054688 12.77515625 39.94953125 13.3784375 40 14 C40.27972656 13.34773438 40.55945313 12.69546875 40.84765625 12.0234375 C43.59650352 6.03077367 46.38217866 1.60765304 52 -2 C57.22620576 -3.74206859 61.34436982 -3.79597605 66.25 -1.4375 C69.83453549 1.73970191 72.51115168 5.2220515 73.3515625 9.99780273 C73.46625185 12.15872409 73.45086696 14.27493717 73.375 16.4375 C73.36138428 17.21593262 73.34776855 17.99436523 73.33374023 18.79638672 C73.12554559 26.61278947 72.1337824 34.27041778 71 42 C70.67 44.64 70.34 47.28 70 50 C62.41 50 54.82 50 47 50 C49 41 49 41 49.8515625 37.26171875 C51.55720541 29.37958105 52.40527707 22.06051053 52 14 C50.35 14 48.7 14 47 14 C40.58942729 25.68092498 38.5584985 36.93258948 37 50 C29.74 50 22.48 50 15 50 C17 41 17 41 17.8515625 37.26171875 C19.55720541 29.37958105 20.40527707 22.06051053 20 14 C17.62915884 13.9201542 17.62915884 13.9201542 15 15 C13.3633202 17.48189948 12.05396434 19.791123 10.75 22.4375 C6.9897352 29.57258465 2.82928028 35.35808944 -3 41 C-3.680625 41.67804688 -4.36125 42.35609375 -5.0625 43.0546875 C-11.01716508 48.66044642 -16.30932528 51.07598056 -24.5 51.4375 C-30.73941982 51.23038233 -35.11187466 49.59866957 -39.75390625 45.421875 C-44.71224636 40.11704847 -46.48609985 34.47718954 -46.24609375 27.1640625 C-45.13626227 17.40459204 -40.84651551 8.78400844 -33.125 2.625 C-23.68128563 -3.76548341 -10.11895392 -6.59931777 0 0 Z " fill="#FEF8F6" transform="translate(377,293)"/>
<path d="M0 0 C2.77208187 2.21766549 4.52323959 4.76133222 5.83203125 8.015625 C6.02734375 10.59375 6.02734375 10.59375 5.95703125 13.265625 C5.93898437 14.15765625 5.9209375 15.0496875 5.90234375 15.96875 C5.87914062 16.64421875 5.8559375 17.3196875 5.83203125 18.015625 C6.19554687 17.20738281 6.5590625 16.39914062 6.93359375 15.56640625 C10.66433168 7.63619665 13.61302517 3.82829572 20.83203125 -0.984375 C26.49568316 -1.6425832 32.71565344 -2.06728497 37.89453125 0.640625 C42.22106893 4.13867674 45.41022277 8.17879015 46.03515625 13.86328125 C46.17399931 20.42361605 45.18973709 26.64142256 43.98730469 33.06665039 C42.81832041 39.44842285 42.38035415 45.43575016 41.83203125 52.015625 C32.59203125 52.015625 23.35203125 52.015625 13.83203125 52.015625 C16.83203125 41.015625 16.83203125 41.015625 18 36.7578125 C19.85397675 29.7254869 21.35538577 23.34258834 20.83203125 16.015625 C18.00051152 15.59753299 18.00051152 15.59753299 14.83203125 16.015625 C5.52397277 24.22861778 4.8308226 40.73673098 2.83203125 52.015625 C-5.74796875 52.015625 -14.32796875 52.015625 -23.16796875 52.015625 C-22.56984375 49.6025 -21.97171875 47.189375 -21.35546875 44.703125 C-21.15945068 43.90922363 -20.96343262 43.11532227 -20.76147461 42.29736328 C-19.7398518 38.19205397 -18.62534413 34.13351983 -17.41796875 30.078125 C-16.06522936 25.25213584 -15.92226947 21.01151026 -16.16796875 16.015625 C-18.99948848 15.59753299 -18.99948848 15.59753299 -22.16796875 16.015625 C-31.28337966 25.56182092 -30.79113411 39.67429044 -31.16796875 52.015625 C-38.42796875 52.015625 -45.68796875 52.015625 -53.16796875 52.015625 C-49.31752155 32.76338901 -41.73663499 14.70871911 -25.04296875 3.19921875 C-17.83358916 -1.35170212 -8.19448218 -3.72073786 0 0 Z " fill="#E43A3A" transform="translate(106.16796875,282.984375)"/>
<path d="M0 0 C3.44294686 3.18472585 5.34602468 5.6762556 5.79296875 10.42578125 C5.75816406 11.48152344 5.72335937 12.53726562 5.6875 13.625 C5.64689453 15.22794922 5.64689453 15.22794922 5.60546875 16.86328125 C5.57066406 17.67152344 5.53585937 18.47976563 5.5 19.3125 C5.70753906 18.755625 5.91507812 18.19875 6.12890625 17.625 C9.4380204 9.4283658 14.12410001 2.53735857 22.46484375 -1.0625 C27.66023716 -2.65801429 31.81863943 -2.23737656 36.75 0 C41.22306659 2.49965486 43.62641335 5.39060936 45.75 10.0625 C47.86345123 19.22078867 45.65555625 28.302774 44 37.375 C43.75840831 38.73099415 43.51751742 40.08711335 43.27734375 41.44335938 C42.69176661 44.73430288 42.09682328 48.02357743 41.5 51.3125 C32.92 51.3125 24.34 51.3125 15.5 51.3125 C16.62162396 42.33950831 16.62162396 42.33950831 17.69140625 38.65625 C17.91376953 37.86089844 18.13613281 37.06554687 18.36523438 36.24609375 C18.83037562 34.6226596 19.29913256 33.0002571 19.77148438 31.37890625 C21.21617592 26.18138623 21.83447564 21.71276126 21.5 16.3125 C20.46123766 15.08735711 20.46123766 15.08735711 18.25 14.875 C14.80706505 15.42273965 13.79168462 16.90027086 11.68603516 19.56274414 C5.61600157 28.51785544 4.59436481 40.86629042 3.5 51.3125 C-5.08 51.3125 -13.66 51.3125 -22.5 51.3125 C-21.28625149 45.24375745 -20.09598227 39.67658775 -18.375 33.8125 C-16.73243963 27.82019641 -15.97574703 22.50159762 -16.5 16.3125 C-18.739835 15.36229584 -18.739835 15.36229584 -21.5 15.3125 C-26.69484545 18.60679224 -28.0809333 23.59306871 -29.71875 29.33203125 C-31.39843761 36.83813526 -31.28005829 44.66952546 -31.5 52.3125 C-38.76 52.3125 -46.02 52.3125 -53.5 52.3125 C-50.05123774 35.06868872 -44.0036672 20.8381807 -31.5 8.3125 C-30.9121875 7.71308594 -30.324375 7.11367188 -29.71875 6.49609375 C-21.83557655 -0.92226995 -10.16283587 -4.89993872 0 0 Z " fill="#FEF9F7" transform="translate(282.5,291.6875)"/>
<path d="M0 0 C2.4656856 2.04056739 2.95657975 2.86973924 4 6 C4.06937062 8.22818441 4.08457084 10.45834524 4.0625 12.6875 C4.05347656 13.86699219 4.04445313 15.04648437 4.03515625 16.26171875 C4.02355469 17.16535156 4.01195312 18.06898438 4 19 C4.20753906 18.3709375 4.41507813 17.741875 4.62890625 17.09375 C7.50713356 9.09733604 11.39969871 2.71257009 19 -1.5 C24.2184844 -3.75799806 28.75632664 -3.55396714 34.125 -1.875 C38.4435459 -0.09234442 40.41521636 2.12282454 43 6 C48.20157938 18.91488031 42.27230753 36.95255679 40 50 C31.42 50 22.84 50 14 50 C15.12430122 42.12989148 15.12430122 42.12989148 15.9375 38.9921875 C16.11023438 38.31542969 16.28296875 37.63867188 16.4609375 36.94140625 C16.72777344 35.91853516 16.72777344 35.91853516 17 34.875 C18.74236351 28.12018494 20.27021481 22.0255851 20 15 C18.96123766 13.77485711 18.96123766 13.77485711 16.75 13.5625 C13.32062639 14.10808217 12.28609321 15.55997908 10.18603516 18.21459961 C8.27101094 21.09738514 7.25680988 24.20561412 6.3125 27.5 C6.10536377 28.18835938 5.89822754 28.87671875 5.68481445 29.5859375 C3.7422707 36.32811559 2.7993612 43.02375676 2 50 C-6.58 50 -15.16 50 -24 50 C-22.8630648 44.88379159 -21.73196969 39.8194415 -20.4375 34.75 C-19.04855005 29.30934632 -17.8623035 24.32723723 -17.9375 18.6875 C-17.94652344 17.80449219 -17.95554687 16.92148437 -17.96484375 16.01171875 C-17.97644531 15.34785156 -17.98804688 14.68398438 -18 14 C-21.04386724 13.91773332 -23.07175348 14.02391783 -26 15 C-30.4532045 23.62808371 -32.03982836 33.73539698 -32.5625 43.3125 C-32.706875 45.849375 -32.85125 48.38625 -33 51 C-40.26 51 -47.52 51 -55 51 C-54.23078436 45.61549049 -53.23034592 41.22960625 -51.3125 36.25 C-51.0448584 35.55116699 -50.7772168 34.85233398 -50.50146484 34.13232422 C-45.0378283 20.20597237 -37.49352281 7.36010335 -24 0 C-15.83721365 -3.46300027 -7.86276744 -4.93708653 0 0 Z " fill="#FEF8F6" transform="translate(554,293)"/>
<path d="M0 0 C2.51606098 2.19348906 3.74650483 3.74926441 4.4140625 7.04296875 C4.81649553 13.19595804 2.8882698 17.31712466 -1 22 C-5.69648962 26.36102607 -9.56438896 27.41915599 -15.8359375 27.34765625 C-18 27 -18 27 -20.5625 24.8125 C-22.06525938 21.87231859 -22.3708842 20.24523674 -22 17 C-21.46375 17.350625 -20.9275 17.70125 -20.375 18.0625 C-17.12721302 19.34452118 -15.30703161 19.05543562 -12 18 C-8.58738873 14.11668372 -8.24170178 9.99517019 -8 5 C-9.64135017 1.82459475 -9.64135017 1.82459475 -12.3125 1.375 C-15.82162129 2.19107472 -16.97714665 3.98019299 -18.86328125 6.94921875 C-22.48939701 13.49118017 -23.98255978 19.47566061 -23 27 C-21.30596911 30.78365532 -21.30596911 30.78365532 -18 33 C-11.53416689 33.69276783 -7.7500241 32.2414995 -2.1015625 29.09375 C0 28 0 28 2 28 C1.46064387 34.47227359 -0.03114346 40.13242642 -4.83203125 44.76953125 C-12.62302173 50.89208782 -20.25419708 51.93044385 -30 51 C-36.02918476 49.45605966 -39.32066678 45.95318422 -42.87109375 41 C-46.42038694 34.71197884 -45.90774667 26.08196909 -44.38671875 19.2421875 C-41.0883109 9.9717725 -34.7338436 3.35853769 -26.078125 -1.125 C-18.03317332 -4.51234807 -7.49198221 -4.62271243 0 0 Z " fill="#FEF8F5" transform="translate(498,293)"/>
<path d="M0 0 C3.40361259 2.7077629 6.23278093 5.62052151 7.25 9.9375 C6.96565292 14.14583675 6.14239181 18.15271638 4.25 21.9375 C3.59 21.9375 2.93 21.9375 2.25 21.9375 C2.1675 22.515 2.085 23.0925 2 23.6875 C1.04468987 26.5534304 -0.53469173 27.9365764 -2.75 29.9375 C-0.77 29.9375 1.21 29.9375 3.25 29.9375 C3.25 31.9175 3.25 33.8975 3.25 35.9375 C3.91 35.9375 4.57 35.9375 5.25 35.9375 C5.4975 34.98875 5.745 34.04 6 33.0625 C7.37486373 28.21062581 9.32134972 23.59060286 11.25 18.9375 C11.91 18.9375 12.57 18.9375 13.25 18.9375 C13.45625 18.256875 13.6625 17.57625 13.875 16.875 C16.21728163 11.8710347 19.66501168 7.99415888 24.25 4.9375 C25.24 4.9375 26.23 4.9375 27.25 4.9375 C27.25 4.2775 27.25 3.6175 27.25 2.9375 C34.96192791 -1.49685855 44.48491266 -2.07804115 53.25 -1.0625 C56.11328125 0.453125 56.11328125 0.453125 58.25 1.9375 C57.59 2.5975 56.93 3.2575 56.25 3.9375 C55.425 3.4425 54.6 2.9475 53.75 2.4375 C47.31668554 -0.31963477 41.36981795 0.62270657 34.890625 2.7890625 C20.03630365 9.24937385 12.58957011 22.65965056 6.7578125 36.96875 C4.58924601 42.53337344 2.88254098 48.19095576 1.25 53.9375 C8.51 53.9375 15.77 53.9375 23.25 53.9375 C23.25 48.6575 23.25 43.3775 23.25 37.9375 C23.58 37.9375 23.91 37.9375 24.25 37.9375 C24.25 43.5475 24.25 49.1575 24.25 54.9375 C18.62139114 57.18894354 18.62139114 57.18894354 14.89453125 56.94921875 C14.10755859 56.90216797 13.32058594 56.85511719 12.50976562 56.80664062 C11.70216797 56.74669922 10.89457031 56.68675781 10.0625 56.625 C9.24330078 56.57666016 8.42410156 56.52832031 7.58007812 56.47851562 C1.54755499 56.0862775 1.54755499 56.0862775 -0.75 54.9375 C-0.75 52.6275 -0.75 50.3175 -0.75 47.9375 C-2.73491642 48.20426204 -2.73491642 48.20426204 -4.75 48.9375 C-5.08 49.9275 -5.41 50.9175 -5.75 51.9375 C-8.125 53 -8.125 53 -10.75 53.9375 C-11.74 54.5975 -12.73 55.2575 -13.75 55.9375 C-22.93100795 56.89041899 -31.69644906 57.52269721 -39.31640625 51.640625 C-40.75 49.9375 -40.75 49.9375 -41.27734375 47.796875 C-41.43332031 47.18328125 -41.58929688 46.5696875 -41.75 45.9375 C-42.74 45.6075 -43.73 45.2775 -44.75 44.9375 C-44.87375 44.133125 -44.9975 43.32875 -45.125 42.5 C-45.33125 41.654375 -45.5375 40.80875 -45.75 39.9375 C-46.41 39.6075 -47.07 39.2775 -47.75 38.9375 C-48.41 43.5575 -49.07 48.1775 -49.75 52.9375 C-50.08 52.9375 -50.41 52.9375 -50.75 52.9375 C-50.61076462 49.68718216 -50.46245815 46.43733939 -50.3125 43.1875 C-50.27318359 42.26710938 -50.23386719 41.34671875 -50.19335938 40.3984375 C-50.15146484 39.50898438 -50.10957031 38.61953125 -50.06640625 37.703125 C-50.02974854 36.88618164 -49.99309082 36.06923828 -49.95532227 35.22753906 C-49.75807949 33.02761366 -49.28800149 31.07378427 -48.75 28.9375 C-48.51300561 26.00271948 -48.51912891 23.0684613 -48.5 20.125 C-48.479375 19.34318359 -48.45875 18.56136719 -48.4375 17.75585938 C-48.4016122 12.38614678 -49.31797873 8.73114192 -51.75 3.9375 C-48.75 4.9375 -48.75 4.9375 -47.36328125 7.22265625 C-46.93402344 8.13917969 -46.50476563 9.05570312 -46.0625 10 C-45.40701172 11.37865234 -45.40701172 11.37865234 -44.73828125 12.78515625 C-44.41214844 13.49542969 -44.08601563 14.20570313 -43.75 14.9375 C-43.42 14.2775 -43.09 13.6175 -42.75 12.9375 C-42.09 12.9375 -41.43 12.9375 -40.75 12.9375 C-40.646875 12.339375 -40.54375 11.74125 -40.4375 11.125 C-39.64363064 8.59905205 -38.79427591 7.58864593 -36.75 5.9375 C-35.76 5.6075 -34.77 5.2775 -33.75 4.9375 C-32.72895449 3.95899805 -31.7293879 2.95769573 -30.75 1.9375 C-22.94968498 -3.26271002 -8.44359318 -4.83399685 0 0 Z M-38.75 11.9375 C-44.56728094 20.39268877 -45.44567785 27.76321148 -44.75 37.9375 C-43.48705597 43.24000767 -40.52123965 47.83849175 -36.171875 51.1328125 C-29.53764282 55.11892679 -21.76996622 54.99863107 -14.34765625 53.4296875 C-8.13858075 51.35602313 -3.53492408 47.80217114 -0.4375 42.0625 C1.26320744 38.35058251 1.91208964 34.99242436 2.25 30.9375 C-0.5866585 32.05497153 -3.32189497 33.21805225 -6.0625 34.5625 C-10.49040344 36.21358264 -13.06369489 36.39844804 -17.75 35.9375 C-20.98613354 34.19496655 -21.57395315 33.46564056 -22.75 29.9375 C-23.73673111 21.12162371 -21.43072029 14.26124241 -16.8125 6.8125 C-14.75 4.9375 -14.75 4.9375 -12.125 4.4375 C-9.75 4.9375 -9.75 4.9375 -7.75 7.9375 C-7.99170178 12.93267019 -8.33738873 17.05418372 -11.75 20.9375 C-15.05703161 21.99293562 -16.87721302 22.28202118 -20.125 21 C-20.66125 20.649375 -21.1975 20.29875 -21.75 19.9375 C-21.45500317 24.5785895 -21.45500317 24.5785895 -19.47265625 28.640625 C-16.74329827 30.69537976 -14.41193794 30.40762217 -11.09765625 30.2890625 C-6.13063634 29.5452492 -2.84120082 27.11717656 0.5625 23.4375 C4.05080785 18.26963652 5.2991028 14.17803936 4.25 7.9375 C2.49210649 4.36890073 0.17634757 2.31504502 -3.5390625 0.80078125 C-17.36884636 -2.91744531 -29.41376632 1.45955727 -38.75 11.9375 Z " fill="#C5413F" transform="translate(497.75,290.0625)"/>
<path d="M0 0 C1.875 1.5625 1.875 1.5625 3 3 C3 2.34 3 1.68 3 1 C16.14394449 -1.03612971 27.97183101 -2.0943226 41.03125 1.265625 C44.68859809 2.17033742 48.25509625 2.63285257 52 3 C52 3.66 52 4.32 52 5 C52.99 5.33 53.98 5.66 55 6 C52.28167021 7.35916489 50.70686146 6.46390613 47.89794922 5.66430664 C26.29493222 -0.38836862 2.61881369 1.97493011 -17 13 C-20.34659581 15.16800026 -23.45160771 17.57036883 -26.546875 20.08203125 C-28.6585458 21.73303502 -30.56064122 22.92280652 -33 24 C-29.34312327 19.25026356 -25.49752525 15.83860229 -20.625 12.375 C-19.99078125 11.9109375 -19.3565625 11.446875 -18.703125 10.96875 C-14.61008172 8.01173506 -10.42331597 5.43453825 -6 3 C-29.80909734 13.94179313 -46.25294407 29.10951404 -55.96875 53.95703125 C-63.06969684 74.91020392 -61.37484081 97.66778897 -52.24975586 117.6953125 C-51.45362238 119.44322091 -50.72062529 121.21963164 -50 123 C-50.495 123.99 -50.495 123.99 -51 125 C-53.73370045 122.63907689 -54.91097645 120.43461272 -56 117 C-56 115.68 -56 114.36 -56 113 C-56.66 113 -57.32 113 -58 113 C-63.26430934 97.33484648 -65.64082934 81.30151974 -62 65 C-61.505 64.505 -61.505 64.505 -61 64 C-60.76719635 62.0710555 -60.53640466 60.14182553 -60.3203125 58.2109375 C-59.85841935 55.02274818 -58.96005831 52.07218658 -58 49 C-57.34 49 -56.68 49 -56 49 C-55.79503906 48.38511719 -55.59007812 47.77023437 -55.37890625 47.13671875 C-54.25260417 43.7578125 -53.12630208 40.37890625 -52 37 C-51.34 37 -50.68 37 -50 37 C-49.92652344 36.46890625 -49.85304688 35.9378125 -49.77734375 35.390625 C-48.68956324 32.04528996 -46.67283612 29.51094053 -44.5625 26.75 C-44.15451172 26.19570313 -43.74652344 25.64140625 -43.32617188 25.0703125 C-42.27046691 23.67189091 -41.14012413 22.33049348 -40 21 C-39.34 21 -38.68 21 -38 21 C-38 20.34 -38 19.68 -38 19 C-37.401875 18.7525 -36.80375 18.505 -36.1875 18.25 C-33.86706787 17.12019611 -33.86706787 17.12019611 -32.4375 14.875 C-31.963125 14.25625 -31.48875 13.6375 -31 13 C-30.01 13 -29.02 13 -28 13 C-28 12.34 -28 11.68 -28 11 C-27.34 10.34 -26.68 9.68 -26 9 C-24.68 9 -23.36 9 -22 9 C-22 8.34 -22 7.68 -22 7 C-20.68 7 -19.36 7 -18 7 C-18 6.34 -18 5.68 -18 5 C-16.68 5 -15.36 5 -14 5 C-14 4.34 -14 3.68 -14 3 C-13.01 3 -12.02 3 -11 3 C-11 2.34 -11 1.68 -11 1 C-6.94405371 -1.02797315 -4.37353074 -1.23599782 0 0 Z " fill="#C74642" transform="translate(79,231)"/>
<path d="M0 0 C0.66 1.65 1.32 3.3 2 5 C1.505 4.67 1.01 4.34 0.5 4 C-4.18309061 2.12676376 -8.44309985 2.50179195 -13.125 4 C-19.13731505 8.18248003 -22.13591357 14.15830668 -25.4375 20.5625 C-30.34316931 29.82757413 -36.03827912 35.358598 -46 39 C-50.39269403 39.72011378 -52.09801221 39.5181632 -55.9375 37.3125 C-59.209144 32.05804145 -58.7550656 27.01955078 -58 21 C-56.45991513 14.92977186 -54.17535225 9.78684311 -49 6 C-46.3125 5.5625 -46.3125 5.5625 -44 6 C-41.62839852 8.37160148 -41.68016648 9.00621122 -41.625 12.25 C-41.7163234 17.39731881 -43.34665253 20.34665253 -47 24 C-50.5 24.125 -50.5 24.125 -54 24 C-54.33 23.67 -54.66 23.34 -55 23 C-55.2502157 25.91634129 -55.2502157 25.91634129 -55 29 C-51.25349253 31.49767165 -48.33516707 31.61820564 -44 31 C-38.16452588 29.14277858 -34.9207361 26.49098387 -32 21 C-30.50915168 16.52745503 -30.50915168 12.47254497 -32 8 C-29 9 -29 9 -28 11 C-27.86584528 13.6723621 -27.95681459 16.32250488 -28 19 C-27.34 19 -26.68 19 -26 19 C-26 17.35 -26 15.7 -26 14 C-25.34 14 -24.68 14 -24 14 C-23.67 12.35 -23.34 10.7 -23 9 C-22.34 9 -21.68 9 -21 9 C-20.89171875 8.39671875 -20.7834375 7.7934375 -20.671875 7.171875 C-19.74514515 4.17616689 -17.92561543 2.71315775 -15.38671875 0.97265625 C-10.51296473 -1.0135381 -5.16143657 -0.34927014 0 0 Z " fill="#BA4643" transform="translate(411,288)"/>
<path d="M0 0 C0.99 0.33 1.98 0.66 3 1 C2.34 1.66 1.68 2.32 1 3 C0.54238281 3.46535156 0.08476562 3.93070312 -0.38671875 4.41015625 C-1.50487373 5.51206685 -2.65635098 6.58077965 -3.83203125 7.62109375 C-16.14868144 18.91742972 -21.52900203 35.35150712 -26 51 C-18.74 51 -11.48 51 -4 51 C-4.0825 48.133125 -4.165 45.26625 -4.25 42.3125 C-4.36400611 31.93349089 -3.40169359 21.95048836 4 14 C7.125 13.0625 7.125 13.0625 10 13 C12.4026939 15.4026939 12.3086535 16.01034108 12.34375 19.3046875 C12.21128082 25.87847053 10.38302328 31.86901215 8.5 38.125 C7.345 42.04375 6.19 45.9625 5 50 C13.58 50 22.16 50 31 50 C31.0928125 46.7515625 31.0928125 46.7515625 31.1875 43.4375 C31.71306598 33.70914438 33.8972016 23.39994393 40 15.5625 C43 13 43 13 45.75 12.4375 C48 13 48 13 50 15 C50.26991906 17.68839385 50.08737357 20.29141936 50 23 C49.67 23 49.34 23 49 23 C48.505 19.535 48.505 19.535 48 16 C45.71658257 15.32845316 45.71658257 15.32845316 43 16 C35.61642372 23.87868489 34.62750526 35.4743798 33.52734375 45.6796875 C33 49 33 49 31 53 C22.09 53 13.18 53 4 53 C1.70192761 47.25481904 2.55907847 45.24739826 4.8125 39.9375 C7.42078807 33.5076303 9.07644777 28.19360335 9.5625 21.25 C9.64628906 20.07953125 9.73007812 18.9090625 9.81640625 17.703125 C9.90728516 16.36507813 9.90728516 16.36507813 10 15 C8.35 15 6.7 15 5 15 C0.02363688 24.64030883 -1.48431783 33.57768854 -1.67211914 44.3203125 C-1.69008545 45.155625 -1.70805176 45.9909375 -1.7265625 46.8515625 C-1.73252441 47.60260254 -1.73848633 48.35364258 -1.74462891 49.12744141 C-2 51 -2 51 -4 53 C-6.78080605 53.36373412 -9.45739716 53.60450305 -12.25 53.75 C-13.00152344 53.80542969 -13.75304687 53.86085938 -14.52734375 53.91796875 C-19.14175377 54.18372011 -22.666755 53.857105 -27 52 C-28 51 -28 51 -28.0625 48.4375 C-28.041875 47.633125 -28.02125 46.82875 -28 46 C-27.34 46 -26.68 46 -26 46 C-26.0825 45.05125 -26.165 44.1025 -26.25 43.125 C-26.25 37.94623565 -24.07759701 33.65324809 -22 29 C-21.66484375 28.19820313 -21.3296875 27.39640625 -20.984375 26.5703125 C-19.05675762 22.02664295 -17.03076942 17.91067022 -14 14 C-13.01 13.67 -12.02 13.34 -11 13 C-10.26676204 10.98491642 -10.26676204 10.98491642 -10 9 C-8.68 8.67 -7.36 8.34 -6 8 C-6 7.01 -6 6.02 -6 5 C-5.01 5 -4.02 5 -3 5 C-3 4.01 -3 3.02 -3 2 C-2.01 2 -1.02 2 0 2 C0 1.34 0 0.68 0 0 Z " fill="#C63D3B" transform="translate(255,293)"/>
<path d="M0 0 C2.61750403 2.36895765 4.17897014 4.8902765 5.9375 7.9375 C17.38952983 26.07387361 36.49340275 37.97970544 57.16796875 42.82006836 C80.63922806 47.65739986 104.2470011 41.72486 124.26708984 29.15966797 C128.22924217 26.50818536 131.66018498 23.38395354 135 20 C135.54398438 19.46890625 136.08796875 18.9378125 136.6484375 18.390625 C137.78150511 17.27633752 138.89425929 16.14140977 140 15 C133.98386705 28.03975227 120.1280731 36.41739837 108 43 C110.97 42.01 113.94 41.02 117 40 C117 40.66 117 41.32 117 42 C114 44 114 44 110 44 C110 44.66 110 45.32 110 46 C102.375 47.25 102.375 47.25 99 45 C96.60144764 45.30750671 94.39817917 45.88798331 92.07476807 46.54161072 C88.65792298 47.29651204 85.2101167 47.00144872 81.734375 46.87890625 C80.94097717 46.85529526 80.14757935 46.83168427 79.33013916 46.80735779 C76.80323317 46.73096071 74.27665233 46.64683387 71.75 46.5625 C70.03386992 46.5092553 68.31772412 46.45651507 66.6015625 46.40429688 C62.40083689 46.27537813 58.20038608 46.13952774 54 46 C54 45.34 54 44.68 54 44 C52.906875 43.855625 51.81375 43.71125 50.6875 43.5625 C47 43 47 43 44 42 C44 41.34 44 40.68 44 40 C43.319375 40.0825 42.63875 40.165 41.9375 40.25 C37.83124335 39.90053135 35.47678105 38.18150968 32 36 C32 35.34 32 34.68 32 34 C30.9275 33.71125 29.855 33.4225 28.75 33.125 C22.87990179 31.36397054 20.74278273 29.87695932 17 25 C16.236875 24.2575 15.47375 23.515 14.6875 22.75 C5 12.8372093 5 12.8372093 5 9 C4.01 8.67 3.02 8.34 2 8 C1.26953125 6.15234375 1.26953125 6.15234375 0.8125 3.9375 C0.65394531 3.20402344 0.49539062 2.47054688 0.33203125 1.71484375 C0.22246094 1.14894531 0.11289062 0.58304687 0 0 Z " fill="#B94948" transform="translate(29,356)"/>
<path d="M0 0 C4.875 0.875 4.875 0.875 6 2 C6.9822712 10.11677638 4.81748581 17.42559278 2.5 25.125 C0.7675 31.003125 0.7675 31.003125 -1 37 C7.58 37 16.16 37 25 37 C25.0928125 33.7515625 25.0928125 33.7515625 25.1875 30.4375 C25.71306598 20.70914438 27.8972016 10.39994393 34 2.5625 C37 0 37 0 39.75 -0.5625 C42 0 42 0 44 2 C44.26991906 4.68839385 44.08737357 7.29141936 44 10 C43.67 10 43.34 10 43 10 C42.505 6.535 42.505 6.535 42 3 C39.71658257 2.32845316 39.71658257 2.32845316 37 3 C29.61642372 10.87868489 28.62750526 22.4743798 27.52734375 32.6796875 C27 36 27 36 25 40 C16.09 40 7.18 40 -2 40 C-4.29807239 34.25481904 -3.44092153 32.24739826 -1.1875 26.9375 C1.42078807 20.5076303 3.07644777 15.19360335 3.5625 8.25 C3.64628906 7.07953125 3.73007812 5.9090625 3.81640625 4.703125 C3.87699219 3.81109375 3.93757813 2.9190625 4 2 C2.35 2 0.7 2 -1 2 C-0.67 1.34 -0.34 0.68 0 0 Z " fill="#BD4849" transform="translate(261,306)"/>
<path d="M0 0 C1.67542976 0.28604898 3.34385343 0.61781233 5 1 C5.87935532 13.45753364 2.91330239 25.26009284 -1 37 C6.26 37 13.52 37 21 37 C21.24880696 32.24412857 21.24880696 32.24412857 21.47802734 27.48730469 C21.69261259 23.87722344 22.04755284 21.07946951 24 18 C24.13711613 25.02339282 24.02354874 32.03734125 23 39 C20.52401267 41.47598733 13.89139842 40.1855126 10.5625 40.1875 C8.94891602 40.20586914 8.94891602 40.20586914 7.30273438 40.22460938 C6.27599609 40.22654297 5.24925781 40.22847656 4.19140625 40.23046875 C2.77130249 40.23663208 2.77130249 40.23663208 1.32250977 40.24291992 C-1 40 -1 40 -3 38 C-2.69347955 35.0574037 -2.32728846 32.65457692 -1 30 C-0.77532169 28.46331135 -0.59203195 26.92031946 -0.4375 25.375 C-0.35371094 24.55773437 -0.26992188 23.74046875 -0.18359375 22.8984375 C-0.12300781 22.27195312 -0.06242187 21.64546875 0 21 C0.66 21 1.32 21 2 21 C1.98839844 19.96359375 1.97679687 18.9271875 1.96484375 17.859375 C1.95546163 16.48958514 1.94636188 15.11979332 1.9375 13.75 C1.92493164 12.72712891 1.92493164 12.72712891 1.91210938 11.68359375 C1.89571608 8.30657446 1.94371232 5.22708361 3 2 C1.68 1.67 0.36 1.34 -1 1 C-0.67 0.67 -0.34 0.34 0 0 Z " fill="#C64140" transform="translate(393,306)"/>
<path d="M0 0 C1.36578017 3.41445044 0.54915864 5.56636677 -0.47900391 8.97387695 C-1.5825436 13.26547765 -1.80904723 17.72085994 -2.2109375 22.12304688 C-2.79241071 27.79241071 -2.79241071 27.79241071 -5 30 C-7.56616211 30.24291992 -7.56616211 30.24291992 -10.77734375 30.23046875 C-11.93041016 30.22853516 -13.08347656 30.22660156 -14.27148438 30.22460938 C-15.48126953 30.21236328 -16.69105469 30.20011719 -17.9375 30.1875 C-19.14341797 30.18685547 -20.34933594 30.18621094 -21.59179688 30.18554688 C-30.57884247 30.14038584 -30.57884247 30.14038584 -34 29 C-33.32584613 23.7415998 -31.75734451 18.97361654 -30 14 C-29.34 14 -28.68 14 -28 14 C-28 11.03 -28 8.06 -28 5 C-27.01 5 -26.02 5 -25 5 C-25.23612446 6.6062677 -25.49000157 8.20992348 -25.75 9.8125 C-25.88921875 10.70582031 -26.0284375 11.59914063 -26.171875 12.51953125 C-27.349622 17.46940189 -29.26119238 22.21827903 -31 27 C-22.42 27 -13.84 27 -5 27 C-5 24.03 -5 21.06 -5 18 C-4.43769268 15.1152327 -3.8363232 12.38200114 -3.0625 9.5625 C-2.88009766 8.85673828 -2.69769531 8.15097656 -2.50976562 7.42382812 C-1.17942027 2.35884054 -1.17942027 2.35884054 0 0 Z " fill="#C53A39" transform="translate(561,316)"/>
<path d="M0 0 C0.39703125 0.49757813 0.7940625 0.99515625 1.203125 1.5078125 C-1.796875 2.5078125 -1.796875 2.5078125 -5.484375 2.3203125 C-11.28028747 2.28846683 -15.37844492 4.41446671 -19.71484375 8.16796875 C-24.61647782 13.25772524 -26.81162628 18.79989136 -28.796875 25.5078125 C-29.79247836 22.25295536 -29.81284266 19.45823531 -29.671875 16.0703125 C-29.64267437 11.68437801 -29.73403463 8.88749843 -32.796875 5.5078125 C-36.72570194 1.94731308 -40.80166538 2.07943101 -45.859375 2.203125 C-50.38393981 2.67242826 -54.53633463 3.95516438 -58.796875 5.5078125 C-58.466875 4.1878125 -58.136875 2.8678125 -57.796875 1.5078125 C-50.4149986 -0.80807029 -41.56707005 -2.61715918 -34.25390625 0.640625 C-30.00843746 3.59466703 -27.7924327 6.28113458 -26.796875 11.5078125 C-25.86875 10.2703125 -25.86875 10.2703125 -24.921875 9.0078125 C-24.220625 8.1828125 -23.519375 7.3578125 -22.796875 6.5078125 C-22.136875 6.5078125 -21.476875 6.5078125 -20.796875 6.5078125 C-20.5184375 5.610625 -20.5184375 5.610625 -20.234375 4.6953125 C-18.1202363 1.47814491 -15.36849013 0.51803211 -11.796875 -0.4921875 C-2.75404255 -2.28705273 -2.75404255 -2.28705273 0 0 Z " fill="#CA4744" transform="translate(316.796875,288.4921875)"/>
<path d="M0 0 C-1.16402344 0.56654297 -1.16402344 0.56654297 -2.3515625 1.14453125 C-11.41431456 5.7624252 -19.31064084 11.33665728 -27 18 C-27 18.33 -27 18.66 -27 19 C-26.01 18.01 -25.02 17.02 -24 16 C-23.34 16.33 -22.68 16.66 -22 17 C-22.66 17.99 -23.32 18.98 -24 20 C-24.66 20 -25.32 20 -26 20 C-26 20.66 -26 21.32 -26 22 C-28.31 23.32 -30.62 24.64 -33 26 C-33 25.01 -33 24.02 -33 23 C-35.90802461 25.21928194 -37.95312762 26.92969143 -40 30 C-40.66 30 -41.32 30 -42 30 C-36.26326077 17.07755133 -22.57756321 8.57318966 -10.4375 2.375 C-9.4009729 1.84205322 -9.4009729 1.84205322 -8.34350586 1.29833984 C-3.37615863 -1.12538621 -3.37615863 -1.12538621 0 0 Z " fill="#FCE0DF" transform="translate(76,234)"/>
<path d="M0 0 C0.99 0.33 1.98 0.66 3 1 C2.76023437 2.28583984 2.76023437 2.28583984 2.515625 3.59765625 C1.29547651 11.6487876 0.68626815 19.86003004 5 27 C9.66801495 32.55115291 14.22202774 34.95101625 21.375 35.6875 C22.91582877 35.80340305 24.45734969 35.91158724 26 36 C26 36.33 26 36.66 26 37 C18.47654676 37.24096469 12.56593806 37.40313217 6.125 33.0625 C5.42375 32.381875 4.7225 31.70125 4 31 C4 30.01 4 29.02 4 28 C3.01 27.67 2.02 27.34 1 27 C0.87625 26.195625 0.7525 25.39125 0.625 24.5625 C0.41875 23.716875 0.2125 22.87125 0 22 C-0.66 21.67 -1.32 21.34 -2 21 C-2.66 25.62 -3.32 30.24 -4 35 C-4.33 35 -4.66 35 -5 35 C-4.88838822 31.85354599 -4.75819443 28.70810843 -4.625 25.5625 C-4.5940625 24.68400391 -4.563125 23.80550781 -4.53125 22.90039062 C-4.27193381 17.04416673 -3.42355815 11.68844577 -2 6 C-1.01 6 -0.02 6 1 6 C0.67 4.02 0.34 2.04 0 0 Z " fill="#BE4D4C" transform="translate(452,308)"/>
<path d="M0 0 C3.47494661 1.15831554 4.50532579 2.47190349 6.20703125 5.66015625 C9.06692775 14.09896414 6.91980224 24.52204118 5 33 C4.67 33.66 4.34 34.32 4 35 C3.76970044 37.37123246 3.58880058 39.74741943 3.4375 42.125 C3.35371094 43.40632813 3.26992188 44.68765625 3.18359375 46.0078125 C3.09271484 47.48894531 3.09271484 47.48894531 3 49 C-0.35952356 50.11984119 -2.66910457 50.028066 -6.19921875 49.87890625 C-7.40771484 49.83056641 -8.61621094 49.78222656 -9.86132812 49.73242188 C-11.12396484 49.67634766 -12.38660156 49.62027344 -13.6875 49.5625 C-14.96173828 49.51029297 -16.23597656 49.45808594 -17.54882812 49.40429688 C-20.69946039 49.27449555 -23.84978577 49.1395244 -27 49 C-26.67 48.34 -26.34 47.68 -26 47 C-13.13 47.495 -13.13 47.495 0 48 C0.28875 45.298125 0.5775 42.59625 0.875 39.8125 C1.49223145 34.11910752 2.20035506 28.46604336 3.125 22.8125 C4.50234058 14.01955771 3.96273408 7.92546816 0 0 Z " fill="#C54647" transform="translate(594,295)"/>
<path d="M0 0 C0.66 0.33 1.32 0.66 2 1 C0.4500922 9.19236978 -2.21706164 15.86702956 -6.37890625 23.08984375 C-7.82468238 25.68527319 -8.97033232 28.21836045 -10 31 C-10.66 31 -11.32 31 -12 31 C-12.165 31.804375 -12.33 32.60875 -12.5 33.4375 C-15.56936477 40.72724132 -20.82100815 45.80933696 -28 49 C-29.70680947 50.62553283 -31.37660195 52.29115995 -33 54 C-35.64998264 56.47901602 -36.55219888 56.97416532 -40.25 57.1875 C-41.61125 57.0946875 -41.61125 57.0946875 -43 57 C-40.18704048 54.85495781 -37.3075115 52.85229603 -34.375 50.875 C-16.94306187 38.6213729 -4.28933264 21.08921881 0 0 Z " fill="#C33A3B" transform="translate(189,339)"/>
<path d="M0 0 C0 3.79952223 -0.7271683 4.9458824 -3 8 C-9.43379443 13.90460788 -9.43379443 13.90460788 -13.7578125 14.16796875 C-14.86769531 14.08482422 -14.86769531 14.08482422 -16 14 C-16.33 14.99 -16.66 15.98 -17 17 C-25.74664493 17.69787061 -33.5156789 16.95682906 -41 12 C-42.60435381 9.46239463 -42.76016231 8.05793058 -43 5 C-42.22076172 5.61488281 -42.22076172 5.61488281 -41.42578125 6.2421875 C-40.72839844 6.78101563 -40.03101563 7.31984375 -39.3125 7.875 C-38.62800781 8.40867187 -37.94351562 8.94234375 -37.23828125 9.4921875 C-30.86260043 13.78714875 -24.3196294 13.81916371 -16.89453125 12.67578125 C-10.00066549 10.67158522 -4.99121677 4.89029143 0 0 Z " fill="#BF4346" transform="translate(377,330)"/>
<path d="M0 0 C2.375 0.375 2.375 0.375 4.375 2.375 C4.79340377 7.87003624 3.84819748 12.81230648 2.625 18.125 C2.46773437 18.85976563 2.31046875 19.59453125 2.1484375 20.3515625 C0.7242505 26.68371701 -1.35974934 32.14556069 -3.625 38.375 C5.285 38.375 14.195 38.375 23.375 38.375 C23.375 38.705 23.375 39.035 23.375 39.375 C14.135 39.375 4.895 39.375 -4.625 39.375 C-3.625 27.375 -3.625 27.375 -2.625 25.375 C-1.965 25.375 -1.305 25.375 -0.625 25.375 C-0.295 21.085 0.035 16.795 0.375 12.375 C1.035 12.375 1.695 12.375 2.375 12.375 C2.375 9.075 2.375 5.775 2.375 2.375 C-2.28500077 3.49897551 -2.28500077 3.49897551 -5.375 7 C-5.7875 7.78375 -6.2 8.5675 -6.625 9.375 C-7.285 9.375 -7.945 9.375 -8.625 9.375 C-7.05806905 4.67420714 -5.2670519 0.75243599 0 0 Z " fill="#B93E3E" transform="translate(570.625,305.625)"/>
<path d="M0 0 C2.3125 0.375 2.3125 0.375 3.3125 1.375 C3.45365161 4.04558851 3.35497107 6.69932238 3.3125 9.375 C2.6525 9.375 1.9925 9.375 1.3125 9.375 C1.3125 11.025 1.3125 12.675 1.3125 14.375 C-1.6575 14.375 -4.6275 14.375 -7.6875 14.375 C-7.20416667 6.27916667 -7.20416667 6.27916667 -4.9375 2.3125 C-2.6875 0.375 -2.6875 0.375 0 0 Z " fill="#DE3B3B" transform="translate(485.6875,295.625)"/>
<path d="M0 0 C1.2065625 0.0309375 1.2065625 0.0309375 2.4375 0.0625 C2.51903933 1.64496707 2.57693557 3.22866273 2.625 4.8125 C2.65980469 5.69421875 2.69460938 6.5759375 2.73046875 7.484375 C2.37748245 10.5906544 1.6807392 11.89937649 -0.5625 14.0625 C-3.32392303 14.59049676 -5.72615545 14.24848981 -8.5625 14.0625 C-8.13044397 8.66179962 -6.58991403 0.16072961 0 0 Z " fill="#E43C3C" transform="translate(364.5625,295.9375)"/>
<path d="M0 0 C0.33 0 0.66 0 1 0 C0.61020794 6.55925943 -0.42113193 11.94526627 -3 18 C2.61 18.33 8.22 18.66 14 19 C13.979375 17.453125 13.95875 15.90625 13.9375 14.3125 C13.93243016 10.73826265 14.07320356 7.47548666 15 4 C15.33 4 15.66 4 16 4 C16 9.61 16 15.22 16 21 C8.74 21 1.48 21 -6 21 C-3.75 9.75 -3.75 9.75 -1.875 4.875 C-1.52179687 3.94429688 -1.16859375 3.01359375 -0.8046875 2.0546875 C-0.53914063 1.37664062 -0.27359375 0.69859375 0 0 Z " fill="#BD5554" transform="translate(59,314)"/>
<path d="M0 0 C2 2 2 2 2.3125 5.5 C2.1578125 7.2325 2.1578125 7.2325 2 9 C-1 11 -1 11 -4.625 10.6875 C-8 10 -8 10 -9 9 C-9.3125 5.625 -9.3125 5.625 -9 2 C-6.17266771 -1.35091234 -4.03066587 -1.37891201 0 0 Z " fill="#E1AAA6" transform="translate(611,332)"/>
<path d="M0 0 C0.33 0 0.66 0 1 0 C1.66 2.64 2.32 5.28 3 8 C3.66 8 4.32 8 5 8 C5.66 10.64 6.32 13.28 7 16 C6.34 16 5.68 16 5 16 C3.375 13.5 3.375 13.5 2 11 C0.58365167 13.83269666 0.6536995 16.47466438 0.4375 19.625 C0.35371094 20.81351562 0.26992188 22.00203125 0.18359375 23.2265625 C0.09271484 24.59941406 0.09271484 24.59941406 0 26 C-3.35952356 27.11984119 -5.66910457 27.028066 -9.19921875 26.87890625 C-10.40771484 26.83056641 -11.61621094 26.78222656 -12.86132812 26.73242188 C-14.12396484 26.67634766 -15.38660156 26.62027344 -16.6875 26.5625 C-17.96173828 26.51029297 -19.23597656 26.45808594 -20.54882812 26.40429688 C-23.69946039 26.27449555 -26.84978577 26.1395244 -30 26 C-29.67 25.34 -29.34 24.68 -29 24 C-16.13 24.495 -16.13 24.495 -3 25 C-2.38475859 19.01754681 -2.38475859 19.01754681 -1.77368164 13.03466797 C-1.31840948 8.65902256 -0.78816544 4.33135964 0 0 Z " fill="#C44B4D" transform="translate(327,318)"/>
<path d="M0 0 C0.66 0 1.32 0 2 0 C1.67 5.61 1.34 11.22 1 17 C-8.24 17 -17.48 17 -27 17 C-26.01 13.37 -25.02 9.74 -24 6 C-23.34 6.33 -22.68 6.66 -22 7 C-22.66 9.64 -23.32 12.28 -24 15 C-16.74 15 -9.48 15 -2 15 C-1.855625 13.2675 -1.71125 11.535 -1.5625 9.75 C-1.28279255 6.39351063 -0.919102 3.24388943 0 0 Z " fill="#C45F5C" transform="translate(147,318)"/>
<path d="M0 0 C0.99 0.33 1.98 0.66 3 1 C2.60167969 1.53367187 2.20335937 2.06734375 1.79296875 2.6171875 C-3.87866657 10.59335591 -6.10496352 18.33360597 -7 28 C-9.16311438 26.27599535 -9.93875073 25.42444206 -10.34057617 22.63989258 C-10.32486572 21.73392334 -10.30915527 20.8279541 -10.29296875 19.89453125 C-10.28330078 18.91162109 -10.27363281 17.92871094 -10.26367188 16.91601562 C-10.23853516 15.89185547 -10.21339844 14.86769531 -10.1875 13.8125 C-10.17396484 12.77673828 -10.16042969 11.74097656 -10.14648438 10.67382812 C-10.11111389 8.11536301 -10.06175544 5.5579422 -10 3 C-9.67 3.99 -9.34 4.98 -9 6 C-5.32579134 5.69381595 -4.21864487 5.24228216 -1.6875 2.4375 C-1.130625 1.633125 -0.57375 0.82875 0 0 Z " fill="#BC4646" transform="translate(338,298)"/>
<path d="M0 0 C0 4.76786875 -3.23029434 6.99436575 -6.37109375 10.37109375 C-12.85635319 16.85635319 -20.52145537 23.31430964 -29 27 C-32.625 26.875 -32.625 26.875 -35 26 C-33.34113699 22.68227398 -29.67547539 21.77878335 -26.4375 20.25 C-20.45316731 17.34360689 -15.08236202 14.33860172 -10 10 C-9.45085937 9.56945312 -8.90171875 9.13890625 -8.3359375 8.6953125 C-5.07249851 6.10706779 -2.4807608 3.33948569 0 0 Z " fill="#A43739" transform="translate(168,371)"/>
<path d="M0 0 C1.66611905 -0.042721 3.33382885 -0.04063832 5 0 C6.67639311 1.67639311 6.25231919 3.62845737 6.3125 5.9375 C6.24882948 16.54500831 3.3341437 26.9975689 0 37 C7.59 37 15.18 37 23 37 C23 37.33 23 37.66 23 38 C15.08 38 7.16 38 -1 38 C-1 35.36 -1 32.72 -1 30 C-0.34 30 0.32 30 1 30 C0.97679687 29.39414062 0.95359375 28.78828125 0.9296875 28.1640625 C0.79490356 21.90623649 1.32538998 16.05059826 3 10 C3.33 9.67 3.66 9.34 4 9 C4.36760731 6.67182036 4.70241581 4.3381615 5 2 C3.02 2 1.04 2 -1 2 C-0.67 1.34 -0.34 0.68 0 0 Z " fill="#BD4849" transform="translate(424,306)"/>
<path d="M0 0 C0.33 0.66 0.66 1.32 1 2 C1.94875 1.505 2.8975 1.01 3.875 0.5 C7 -1 7 -1 9 -1 C9 -0.34 9 0.32 9 1 C6 3 6 3 2 3 C2 3.66 2 4.32 2 5 C-5.625 6.25 -5.625 6.25 -9 4 C-11.42995271 4.3115324 -13.57684443 4.84484296 -15.875 5.6875 C-19.17062853 6.17215126 -21.88283171 5.01907425 -25 4 C-25 3.67 -25 3.34 -25 3 C-24.21496094 2.87882812 -23.42992188 2.75765625 -22.62109375 2.6328125 C-15.78884115 1.58890048 -15.78884115 1.58890048 -9.125 -0.1875 C-5.64719528 -1.09172923 -3.44015621 -0.98290177 0 0 Z " fill="#C44848" transform="translate(137,397)"/>
<path d="M0 0 C0.33 0 0.66 0 1 0 C1.41565344 8.04874066 0.35048533 14.86083772 -1.9375 22.5625 C-2.21529297 23.54541016 -2.49308594 24.52832031 -2.77929688 25.54101562 C-4.78940108 32.57880217 -4.78940108 32.57880217 -6 35 C2.91 35 11.82 35 21 35 C21 35.33 21 35.66 21 36 C11.76 36 2.52 36 -7 36 C-8.04274465 30.78627676 -7.68754416 29.06263248 -6.0625 24.1875 C-5.68222656 23.02605469 -5.30195313 21.86460937 -4.91015625 20.66796875 C-4.60980469 19.78753906 -4.30945313 18.90710938 -4 18 C-3.34 18 -2.68 18 -2 18 C-1.22337945 12.00892722 -0.57914667 6.01326751 0 0 Z " fill="#BE3C3B" transform="translate(303,309)"/>
<path d="M0 0 C0.33 0 0.66 0 1 0 C1.13535156 1.10214844 1.27070313 2.20429688 1.41015625 3.33984375 C2.70269922 12.75993035 4.7924215 21.02104784 8.75024414 29.69116211 C9.54555432 31.44084451 10.27889682 33.21845096 11 35 C10.67 35.66 10.34 36.32 10 37 C7.26629955 34.63907689 6.08902355 32.43461272 5 29 C5 27.68 5 26.36 5 25 C4.34 25 3.68 25 3 25 C-3.03301477 6.06602954 -3.03301477 6.06602954 0 0 Z " fill="#C74041" transform="translate(18,319)"/>
<path d="M0 0 C0.33 0 0.66 0 1 0 C0.85848172 2.0836309 0.71162064 4.16689938 0.5625 6.25 C0.48128906 7.41015625 0.40007812 8.5703125 0.31640625 9.765625 C0 13 0 13 -1 17 C-9.58 17 -18.16 17 -27 17 C-25.68 11.72 -24.36 6.44 -23 1 C-22.67 1 -22.34 1 -22 1 C-22.14295891 2.39613065 -22.28951558 3.79189308 -22.4375 5.1875 C-22.51871094 5.96480469 -22.59992188 6.74210937 -22.68359375 7.54296875 C-23.00597621 10.04640786 -23.50498105 12.52490524 -24 15 C-16.74 15 -9.48 15 -2 15 C-1.855625 13.081875 -1.71125 11.16375 -1.5625 9.1875 C-1.31275672 5.86948218 -1.0541518 3.16245541 0 0 Z " fill="#BB4A46" transform="translate(110,318)"/>
<path d="M0 0 C1.36548984 3.4137246 0.54911993 5.56298914 -0.47900391 8.96948242 C-1.58762712 13.29020372 -1.81073313 17.77904468 -2.2109375 22.2109375 C-2.40877626 24.14839295 -2.69690671 26.07619953 -3 28 C-5.74731243 29.37365621 -7.81667064 29.0128639 -10.8828125 28.87890625 C-12.04941406 28.83056641 -13.21601562 28.78222656 -14.41796875 28.73242188 C-15.64128906 28.67634766 -16.86460937 28.62027344 -18.125 28.5625 C-19.35605469 28.51029297 -20.58710937 28.45808594 -21.85546875 28.40429688 C-24.90388588 28.2743256 -27.9519995 28.13934981 -31 28 C-31 27.67 -31 27.34 -31 27 C-22.42 27 -13.84 27 -5 27 C-5 24.03 -5 21.06 -5 18 C-4.43769268 15.1152327 -3.8363232 12.38200114 -3.0625 9.5625 C-2.88009766 8.85673828 -2.69769531 8.15097656 -2.50976562 7.42382812 C-1.17942027 2.35884054 -1.17942027 2.35884054 0 0 Z " fill="#C75D5C" transform="translate(561,316)"/>
<path d="M0 0 C0.66 0 1.32 0 2 0 C3.75 1.875 3.75 1.875 5 5 C4.63554666 9.1456567 3.86911918 13.26176164 2 17 C1.34 17 0.68 17 0 17 C-0.08378906 17.59296875 -0.16757812 18.1859375 -0.25390625 18.796875 C-1.49235127 22.45385401 -4.21557538 23.7880611 -7.3671875 25.8046875 C-11.57153201 27.71348486 -15.48433703 27.50907265 -20 27 C-20 26.34 -20 25.68 -20 25 C-18.80503906 24.87044922 -18.80503906 24.87044922 -17.5859375 24.73828125 C-10.84503212 23.84441423 -6.57629871 23.16300367 -2 18 C1.30719906 13.14944138 1.56384129 8.69262838 1 3 C0.67 2.01 0.34 1.02 0 0 Z " fill="#BA4545" transform="translate(500,295)"/>
<path d="M0 0 C2.41796875 2.03125 2.41796875 2.03125 4 4 C3.01 3.67 2.02 3.34 1 3 C-8.16028675 2.3319286 -17.23598443 2.23566932 -24.69921875 8.1328125 C-26.42436991 9.69930012 -28.11898465 11.30042614 -29.7734375 12.94140625 C-31.80500926 14.81971909 -33.47225651 15.93234579 -36 17 C-26.35976003 5.0644648 -16.26040538 -2.75394163 0 0 Z " fill="#AF3A3D" transform="translate(104,282)"/>
<path d="M0 0 C1 1 1 1 1.09765625 3.28515625 C1.08605469 4.20167969 1.07445312 5.11820312 1.0625 6.0625 C1.05347656 6.98160156 1.04445313 7.90070313 1.03515625 8.84765625 C1.02355469 9.55792969 1.01195312 10.26820313 1 11 C0.67 11 0.34 11 0 11 C0 8.36 0 5.72 0 3 C-4.63112115 4.32317747 -7.6707826 6.80924271 -10 11 C-10.46970764 13.06369644 -10.46970764 13.06369644 -10.625 15.1875 C-11.01720803 19.17494834 -11.17716155 19.58789201 -14 22 C-13.82355617 14.46103622 -12.21426711 8.33358062 -8 2 C-4.77786243 -0.14809171 -3.72224599 -0.29386153 0 0 Z " fill="#B7383A" transform="translate(536,306)"/>
<path d="M0 0 C3.65734809 0.90471242 7.22384625 1.36722757 10.96875 1.734375 C10.96875 2.394375 10.96875 3.054375 10.96875 3.734375 C11.95875 4.064375 12.94875 4.394375 13.96875 4.734375 C10.6284693 6.40451535 7.19434197 4.74141599 3.71875 3.859375 C-4.36536666 1.84874564 -12.07814892 0.57698996 -20.40625 0.171875 C-21.23769531 0.12869141 -22.06914063 0.08550781 -22.92578125 0.04101562 C-24.96078228 -0.06424305 -26.99599703 -0.16535572 -29.03125 -0.265625 C-29.03125 -0.595625 -29.03125 -0.925625 -29.03125 -1.265625 C-18.97178274 -3.12460256 -9.87775858 -2.54136507 0 0 Z " fill="#DA3B38" transform="translate(120.03125,232.265625)"/>
<path d="M0 0 C0.66 0 1.32 0 2 0 C2 4.62 2 9.24 2 14 C-5.26 14 -12.52 14 -20 14 C-19.67 11.69 -19.34 9.38 -19 7 C-18.67 7 -18.34 7 -18 7 C-18 8.65 -18 10.3 -18 12 C-12.06 12 -6.12 12 0 12 C0 8.04 0 4.08 0 0 Z " fill="#F7CAC9" transform="translate(249,330)"/>
<path d="M0 0 C-2.55377715 2.55377715 -5.00487834 3.25685684 -8.375 4.5625 C-14.90641619 7.20491662 -19.97401397 10.61468522 -25.4765625 15.046875 C-27.61607927 16.70284774 -29.53817913 17.91356262 -32 19 C-28.32853059 14.22920386 -24.45145201 10.79764525 -19.5625 7.3125 C-18.91990234 6.84005859 -18.27730469 6.36761719 -17.61523438 5.88085938 C-6.969291 -1.8252905 -6.969291 -1.8252905 0 0 Z " fill="#AD453F" transform="translate(78,236)"/>
<path d="M0 0 C0.33 0 0.66 0 1 0 C1.13711613 7.02339282 1.02354874 14.03734125 0 21 C-1 22 -1 22 -3.94140625 22.09765625 C-5.13636719 22.08605469 -6.33132813 22.07445312 -7.5625 22.0625 C-9.35880859 22.04896484 -9.35880859 22.04896484 -11.19140625 22.03515625 C-12.11824219 22.02355469 -13.04507812 22.01195312 -14 22 C-14 21.67 -14 21.34 -14 21 C-17.3 20.67 -20.6 20.34 -24 20 C-24 19.67 -24 19.34 -24 19 C-16.74 19 -9.48 19 -2 19 C-1.71180384 14.24389666 -1.71180384 14.24389666 -1.43188477 9.48730469 C-1.22426165 6.22327618 -0.96136915 3.13454816 0 0 Z " fill="#C85152" transform="translate(416,324)"/>
<path d="M0 0 C0.33 0 0.66 0 1 0 C1 2.97 1 5.94 1 9 C-4.51511206 10.90402678 -8.9643003 11.15702013 -14.75 10.6875 C-15.50410156 10.63916016 -16.25820313 10.59082031 -17.03515625 10.54101562 C-20.20681348 10.3184926 -22.97214851 10.00928383 -26 9 C-26 6.69 -26 4.38 -26 2 C-25.67 2 -25.34 2 -25 2 C-25 3.98 -25 5.96 -25 8 C-17.08 7.67 -9.16 7.34 -1 7 C-0.67 4.69 -0.34 2.38 0 0 Z " fill="#D33A3A" transform="translate(448,336)"/>
<path d="M0 0 C3.45175155 0.28177564 3.88238515 0.7770339 6.0625 3.25 C4.87914062 3.20359375 3.69578125 3.1571875 2.4765625 3.109375 C-6.42616758 2.86545169 -13.96668005 2.73913029 -21.9375 7.25 C-22.96875 7.8275 -24 8.405 -25.0625 9 C-25.990625 9.61875 -25.990625 9.61875 -26.9375 10.25 C-26.6075 8.93 -26.2775 7.61 -25.9375 6.25 C-25.2775 6.25 -24.6175 6.25 -23.9375 6.25 C-23.9375 5.59 -23.9375 4.93 -23.9375 4.25 C-15.8949791 1.52923229 -8.42931912 0.53519487 0 0 Z " fill="#C23F3A" transform="translate(367.9375,287.75)"/>
<path d="M0 0 C0.99 0.66 1.98 1.32 3 2 C3 2.66 3 3.32 3 4 C2.505 3.835 2.01 3.67 1.5 3.5 C-3.4103273 2.51793454 -7.50067914 2.47082793 -12.1875 4.125 C-15.57954762 6.38636508 -17.50498266 8.79212057 -20 12 C-20.33 12 -20.66 12 -21 12 C-21 10.35 -21 8.7 -21 7 C-20.01 7 -19.02 7 -18 7 C-18 6.01 -18 5.02 -18 4 C-12.85221524 -1.00479074 -6.89629746 -0.85581758 0 0 Z " fill="#CE3F3A" transform="translate(441,288)"/>
<path d="M0 0 C0.66 0.33 1.32 0.66 2 1 C0.4500922 9.19236978 -2.21706164 15.86702956 -6.37890625 23.08984375 C-7.82468238 25.68527319 -8.97033232 28.21836045 -10 31 C-10.66 31 -11.32 31 -12 31 C-12.66 32.32 -13.32 33.64 -14 35 C-14.99 35 -15.98 35 -17 35 C-16.175 34.01 -15.35 33.02 -14.5 32 C-7.48836844 22.62340008 -2.33153231 11.46336721 0 0 Z " fill="#BB4A4A" transform="translate(189,339)"/>
<path d="M0 0 C-0.82242188 0.4125 -1.64484375 0.825 -2.4921875 1.25 C-10.02915824 5.14903336 -16.55917557 9.40244378 -23 15 C-23.66 13.68 -24.32 12.36 -25 11 C-5.07116304 -1.69038768 -5.07116304 -1.69038768 0 0 Z " fill="#F6CED2" transform="translate(76,234)"/>
<path d="M0 0 C0.33 0.99 0.66 1.98 1 3 C0.34 3.66 -0.32 4.32 -1 5 C-4.80247274 13.71895116 -6.02752043 22.63348622 -7 32 C-7.33 32 -7.66 32 -8 32 C-8.63144481 20.30073093 -8.00165745 9.16156158 0 0 Z " fill="#BB4B4C" transform="translate(259,307)"/>
<path d="M0 0 C0.66 0.33 1.32 0.66 2 1 C1.67 1.66 1.34 2.32 1 3 C0.0925 2.896875 -0.815 2.79375 -1.75 2.6875 C-5.06212046 2.68517602 -5.06212046 2.68517602 -7.125 4.875 C-9.20478549 8.34130914 -10.66059534 11.81705113 -12.0703125 15.59765625 C-12.9278798 17.81363899 -13.90136911 19.89510099 -15 22 C-15.63330582 11.79673958 -15.63330582 11.79673958 -13.0625 8.5625 C-12.381875 8.046875 -11.70125 7.53125 -11 7 C-10.63837971 5.67405895 -10.30271961 4.34061543 -10 3 C-7.48055797 -0.91913205 -4.32090881 -0.31424791 0 0 Z " fill="#BD3E3C" transform="translate(126,296)"/>
<path d="M0 0 C0.55171875 0.47050781 1.1034375 0.94101562 1.671875 1.42578125 C4.26651597 3.1802113 6.18127415 3.66258637 9.25 4.1875 C10.14203125 4.34605469 11.0340625 4.50460937 11.953125 4.66796875 C12.62859375 4.77753906 13.3040625 4.88710938 14 5 C14 4.34 14 3.68 14 3 C15.32 3.33 16.64 3.66 18 4 C16 7 16 7 14.16015625 7.66796875 C10.40828971 8.2446571 6.77423767 8.52181695 3 8 C0.9375 6.25 0.9375 6.25 0 4 C0 2.68 0 1.36 0 0 Z " fill="#D5403A" transform="translate(354,317)"/>
<path d="M0 0 C1.88671875 1.51953125 1.88671875 1.51953125 3 3 C2.03320312 2.96519531 1.06640625 2.93039062 0.0703125 2.89453125 C-7.86075254 2.72962792 -14.50748119 3.03825139 -22 6 C-21.67 4.68 -21.34 3.36 -21 2 C-14.14472026 -0.150676 -7.16319127 -0.91132256 0 0 Z " fill="#CE3731" transform="translate(280,288)"/>
<path d="M0 0 C3.04846865 0.32956418 4.58429646 0.5694499 6.75 2.8125 C7.94998168 4.91246793 8.57691378 6.63071717 9 9 C9.66 8.67 10.32 8.34 11 8 C10.43179252 13.45479185 9.05362055 17.91059256 7 23 C6.00439664 19.74514286 5.98403234 16.95042281 6.125 13.5625 C6.17687296 7.99727294 5.10354655 5.25936481 1.3125 1.1875 C0.879375 0.795625 0.44625 0.40375 0 0 Z " fill="#BF4F4C" transform="translate(281,291)"/>
<path d="M0 0 C0.97195312 0.13277344 1.94390625 0.26554687 2.9453125 0.40234375 C14.94239573 1.96377985 26.91378006 2.58515277 39 3 C39 3.33 39 3.66 39 4 C28.44 4 17.88 4 7 4 C7 3.34 7 2.68 7 2 C4.69 1.67 2.38 1.34 0 1 C0 0.67 0 0.34 0 0 Z " fill="#BA3B3B" transform="translate(76,398)"/>
<path d="M0 0 C0.66 0.33 1.32 0.66 2 1 C2 1.99 2 2.98 2 4 C-0.20716463 5.27289905 -2.41567485 6.5433605 -4.625 7.8125 C-5.24246094 8.16892578 -5.85992187 8.52535156 -6.49609375 8.89257812 C-14.54489169 13.51004642 -14.54489169 13.51004642 -18 15 C-18.99 14.67 -19.98 14.34 -21 14 C-20.31035156 13.64808594 -19.62070313 13.29617188 -18.91015625 12.93359375 C-12.10932249 9.36059055 -5.47603304 5.47603304 0 0 Z " fill="#F9C8CA" transform="translate(156,385)"/>
<path d="M0 0 C0.66 0.495 1.32 0.99 2 1.5 C-0.70311635 2.85155817 -1.9233007 2.12870417 -4.8125 1.375 C-8.82577862 0.50690484 -8.82577862 0.50690484 -12.75 1.5 C-18.45082656 6.23178635 -18.45082656 6.23178635 -22 12.5 C-22.66 12.5 -23.32 12.5 -24 12.5 C-22.29080909 6.85967001 -18.66540589 2.11327198 -13.625 -0.9375 C-8.65689229 -2.00209451 -4.61492356 -2.30746178 0 0 Z " fill="#FDE0DD" transform="translate(443,291.5)"/>
<path d="M0 0 C2.1640625 -0.29296875 2.1640625 -0.29296875 4.625 -0.1875 C5.44226563 -0.16042969 6.25953125 -0.13335937 7.1015625 -0.10546875 C8.04128906 -0.05326172 8.04128906 -0.05326172 9 0 C8.67 0.99 8.34 1.98 8 3 C7.236875 2.79375 6.47375 2.5875 5.6875 2.375 C2.78114056 1.66608797 2.78114056 1.66608797 0 4 C-0.25015873 7.58357241 -0.25015873 7.58357241 0 11 C2.31 11.33 4.62 11.66 7 12 C7 12.99 7 13.98 7 15 C-0.50396825 14.51587302 -0.50396825 14.51587302 -2.5625 12.375 C-3.4353579 7.63662855 -2.64724731 3.97087097 0 0 Z " fill="#D0504B" transform="translate(603,330)"/>
<path d="M0 0 C3.36530737 1.12176912 3.62117479 1.45488073 5.1875 4.4375 C9.11980412 12.91982652 6.69723967 22.18041528 5 31 C4.67 31 4.34 31 4 31 C4.02094727 30.29915283 4.04189453 29.59830566 4.06347656 28.8762207 C4.14683048 25.68846081 4.19872139 22.50093048 4.25 19.3125 C4.28351563 18.20970703 4.31703125 17.10691406 4.3515625 15.97070312 C4.53177118 9.56548041 4.53177118 9.56548041 1.984375 3.85546875 C1.32953125 3.24316406 0.6746875 2.63085938 0 2 C0 1.34 0 0.68 0 0 Z " fill="#BB4B49" transform="translate(145,286)"/>
<path d="M0 0 C1.15625 2.55078125 1.15625 2.55078125 2 5 C1.03900391 4.566875 1.03900391 4.566875 0.05859375 4.125 C-8.30301008 0.48964165 -8.30301008 0.48964165 -17.1015625 1.8359375 C-20.24366338 3.35557174 -23.09319476 5.06212984 -26 7 C-25.67 5.35 -25.34 3.7 -25 2 C-23.68 2 -22.36 2 -21 2 C-21 1.34 -21 0.68 -21 0 C-14.67981122 -1.68538367 -6.23461582 -2.02625014 0 0 Z " fill="#C5433E" transform="translate(592,290)"/>
<path d="M0 0 C0.99 0.33 1.98 0.66 3 1 C-2.66666667 6.66666667 -8.33333333 12.33333333 -14 18 C-13.67 16.35 -13.34 14.7 -13 13 C-12.34 13 -11.68 13 -11 13 C-10.67 11.68 -10.34 10.36 -10 9 C-8.68 8.67 -7.36 8.34 -6 8 C-6 7.01 -6 6.02 -6 5 C-5.01 5 -4.02 5 -3 5 C-3 4.01 -3 3.02 -3 2 C-2.01 2 -1.02 2 0 2 C0 1.34 0 0.68 0 0 Z " fill="#C2433E" transform="translate(255,293)"/>
<path d="M0 0 C0.99 0.33 1.98 0.66 3 1 C3.70211894 2.65204456 4.36971413 4.31923769 5 6 C5.66 6.33 6.32 6.66 7 7 C7.33 5.68 7.66 4.36 8 3 C8.66 3 9.32 3 10 3 C9.566875 4.07894531 9.566875 4.07894531 9.125 5.1796875 C8.40939174 6.97367766 7.70031055 8.77029555 7 10.5703125 C6.67 11.41335938 6.34 12.25640625 6 13.125 C5.67 13.97320312 5.34 14.82140625 5 15.6953125 C4 18 4 18 2 21 C2.03480469 19.35451172 2.03480469 19.35451172 2.0703125 17.67578125 C2.08907921 16.221361 2.10727844 14.76693336 2.125 13.3125 C2.14175781 12.59126953 2.15851562 11.87003906 2.17578125 11.12695312 C2.21391569 6.95123219 1.8789919 3.7505862 0 0 Z " fill="#C03E3C" transform="translate(555,294)"/>
<path d="M0 0 C3.46266106 1.15422035 4.48733293 2.46233642 6.20703125 5.625 C7.84815307 10.54028113 7.5928075 15.89909825 7 21 C6.34 21.99 5.68 22.98 5 24 C4.41995384 20.44721729 3.99390781 17.16753527 4.125 13.5625 C3.94891085 8.54395912 2.22604603 4.45209205 0 0 Z " fill="#CD4544" transform="translate(594,295)"/>
<path d="M0 0 C2.375 0.75 2.375 0.75 3.375 1.75 C3.41580783 3.74958364 3.41754356 5.75045254 3.375 7.75 C2.055 7.09 0.735 6.43 -0.625 5.75 C-0.295 5.09 0.035 4.43 0.375 3.75 C-0.285 3.75 -0.945 3.75 -1.625 3.75 C-1.955 4.74 -2.285 5.73 -2.625 6.75 C-2.295 7.08 -1.965 7.41 -1.625 7.75 C-0.965 8.41 -0.305 9.07 0.375 9.75 C-1.275 9.42 -2.925 9.09 -4.625 8.75 C-5.95341008 3.31559513 -5.95341008 3.31559513 -4.5 0.8125 C-2.625 -0.25 -2.625 -0.25 0 0 Z " fill="#A7807D" transform="translate(157.625,325.25)"/>
<path d="M0 0 C0.99 0.33 1.98 0.66 3 1 C1.68 6.94 0.36 12.88 -1 19 C-1.66 19 -2.32 19 -3 19 C-3.07654536 14.48382401 -3.10228696 10.40914783 -2 6 C-1.01 6 -0.02 6 1 6 C0.67 4.02 0.34 2.04 0 0 Z " fill="#BC4443" transform="translate(452,308)"/>
<path d="M0 0 C0.33 1.32 0.66 2.64 1 4 C1.66 4 2.32 4 3 4 C1.64978174 8.41889613 -0.26115668 10.34345343 -4 13 C-4 12.01 -4 11.02 -4 10 C-4.66 9.67 -5.32 9.34 -6 9 C-4.02 6.03 -2.04 3.06 0 0 Z " fill="#BA3A35" transform="translate(380,307)"/>
<path d="M0 0 C0.99 0.33 1.98 0.66 3 1 C2.04956626 2.33897583 1.08940853 3.67105427 0.125 5 C-0.40867187 5.7425 -0.94234375 6.485 -1.4921875 7.25 C-1.98976563 7.8275 -2.48734375 8.405 -3 9 C-3.66 9 -4.32 9 -5 9 C-5.66 11.97 -6.32 14.94 -7 18 C-7.33 18 -7.66 18 -8 18 C-8 14.04 -8 10.08 -8 6 C-6.68 5.67 -5.36 5.34 -4 5 C-1.75149517 2.52338502 -1.75149517 2.52338502 0 0 Z " fill="#D53837" transform="translate(338,298)"/>
<path d="M0 0 C0.33 0 0.66 0 1 0 C1 7.26 1 14.52 1 22 C0.34 22.33 -0.32 22.66 -1 23 C-2.1736381 14.94313304 -1.67968453 7.95420855 0 0 Z " fill="#C93538" transform="translate(17,299)"/>
<path d="M0 0 C2.97 0.495 2.97 0.495 6 1 C6 1.33 6 1.66 6 2 C5.0925 2.20625 4.185 2.4125 3.25 2.625 C-0.98558081 4.4169765 -1.91691911 5.90566859 -4 10 C-5.16382501 13.63133381 -6.12826044 17.2885028 -7 21 C-7.33 21 -7.66 21 -8 21 C-8.19392201 15.47322267 -7.7479503 11.24385089 -6 6 C-5.34 6 -4.68 6 -4 6 C-3.67 4.68 -3.34 3.36 -3 2 C-2.01 2 -1.02 2 0 2 C0 1.34 0 0.68 0 0 Z " fill="#BF4541" transform="translate(83,296)"/>
<path d="M0 0 C0.66 0.33 1.32 0.66 2 1 C-2.625 5.875 -2.625 5.875 -6 7 C-6.0825 7.86625 -6.165 8.7325 -6.25 9.625 C-7.10607746 13.47734858 -8.67368546 15.848219 -11 19 C-11.33 18.34 -11.66 17.68 -12 17 C-9.34060674 9.99451658 -6.28766477 4.19177652 0 0 Z " fill="#BB474B" transform="translate(124,284)"/>
<path d="M0 0 C0.33 0 0.66 0 1 0 C0.61020794 6.55925943 -0.42113193 11.94526627 -3 18 C-2.34 18.33 -1.68 18.66 -1 19 C-2.32 18.67 -3.64 18.34 -5 18 C-4.42934122 11.58008874 -2.32655091 5.98410537 0 0 Z " fill="#C24545" transform="translate(59,314)"/>
<path d="M0 0 C1 2 1 2 0.22265625 4.3828125 C-0.16019531 5.28773438 -0.54304688 6.19265625 -0.9375 7.125 C-1.31777344 8.03507812 -1.69804687 8.94515625 -2.08984375 9.8828125 C-2.39019531 10.58148438 -2.69054687 11.28015625 -3 12 C-3.66 12 -4.32 12 -5 12 C-5.2475 12.721875 -5.495 13.44375 -5.75 14.1875 C-7.10983674 17.24713266 -8.82917754 19.4673738 -11 22 C-11.66 21.67 -12.32 21.34 -13 21 C-12.56429688 20.40574219 -12.12859375 19.81148438 -11.6796875 19.19921875 C-7.25612939 13.04262163 -3.49100233 6.72625358 0 0 Z " fill="#B84245" transform="translate(391,308)"/>
<path d="M0 0 C2.9321307 2.80464675 3.9716438 4.05403705 4.09765625 8.2578125 C4.08605469 9.53398437 4.07445313 10.81015625 4.0625 12.125 C4.05347656 13.40632813 4.04445313 14.68765625 4.03515625 16.0078125 C4.02355469 16.99523437 4.01195313 17.98265625 4 19 C3.01 19.33 2.02 19.66 1 20 C1.01740234 18.46279297 1.01740234 18.46279297 1.03515625 16.89453125 C1.04454022 15.533856 1.05363977 14.17317876 1.0625 12.8125 C1.07087891 12.13896484 1.07925781 11.46542969 1.08789062 10.77148438 C1.10606538 7.04565869 0.89299392 3.6211958 0 0 Z " fill="#C95252" transform="translate(108,286)"/>
<path d="M0 0 C-2.67744188 2.09807945 -4.62189888 3.39676766 -8 4 C-8 3.34 -8 2.68 -8 2 C-8.90492188 2.23396484 -8.90492188 2.23396484 -9.828125 2.47265625 C-10.62734375 2.66730469 -11.4265625 2.86195313 -12.25 3.0625 C-13.03890625 3.25972656 -13.8278125 3.45695312 -14.640625 3.66015625 C-17.10394822 4.01497267 -18.65604132 3.76877544 -21 3 C-13.93924474 -0.32270836 -7.7276932 -0.31806054 0 0 Z " fill="#FCDBD8" transform="translate(491,290)"/>
<path d="M0 0 C0.33 1.32 0.66 2.64 1 4 C-5.15384615 8.06153846 -5.15384615 8.06153846 -9.4375 7.75 C-10.283125 7.5025 -11.12875 7.255 -12 7 C-10.53092999 4.06185997 -8.40552194 3.6713774 -5.4375 2.375 C-4.42558594 1.92898438 -3.41367188 1.48296875 -2.37109375 1.0234375 C-1.58863281 0.68570312 -0.80617187 0.34796875 0 0 Z " fill="#B74347" transform="translate(145,390)"/>
<path d="M0 0 C0.66 0.33 1.32 0.66 2 1 C-6.27906977 10.58139535 -6.27906977 10.58139535 -9 13 C-9.66 13 -10.32 13 -11 13 C-8.52241061 7.42542386 -4.84184017 3.63138013 0 0 Z " fill="#FBE4E3" transform="translate(525,296)"/>
<path d="M0 0 C1.216875 -0.00515625 2.43375 -0.0103125 3.6875 -0.015625 C6.75288791 0.23018441 8.43662952 0.6350766 11 2.25 C9.02 2.25 7.04 2.25 5 2.25 C4.67 3.24 4.34 4.23 4 5.25 C2.68 4.59 1.36 3.93 0 3.25 C0.66 2.92 1.32 2.59 2 2.25 C-2.29 2.25 -6.58 2.25 -11 2.25 C-6.75146392 0.12573196 -4.66183212 -0.01975353 0 0 Z " fill="#FCDDDA" transform="translate(363,289.75)"/>
<path d="M0 0 C2.06183633 -0.08150744 4.12461349 -0.1394194 6.1875 -0.1875 C7.33605469 -0.22230469 8.48460937 -0.25710938 9.66796875 -0.29296875 C13.27915322 0.02454454 15.12113688 0.84762965 18 3 C18 3.33 18 3.66 18 4 C16.35 4 14.7 4 13 4 C13 3.34 13 2.68 13 2 C8.38 2 3.76 2 -1 2 C-0.67 1.34 -0.34 0.68 0 0 Z " fill="#B54242" transform="translate(127,282)"/>
<path d="M0 0 C0.99 0.99 1.98 1.98 3 3 C2.67 3.99 2.34 4.98 2 6 C-7.57 5.67 -17.14 5.34 -27 5 C-26.67 4.34 -26.34 3.68 -26 3 C-13.13 3.495 -13.13 3.495 0 4 C0 2.68 0 1.36 0 0 Z " fill="#DF7C7C" transform="translate(594,339)"/>
<path d="M0 0 C0.99 0.99 1.98 1.98 3 3 C2.67 3.99 2.34 4.98 2 6 C-7.57 5.67 -17.14 5.34 -27 5 C-26.67 4.34 -26.34 3.68 -26 3 C-13.13 3.495 -13.13 3.495 0 4 C0 2.68 0 1.36 0 0 Z " fill="#DF7D7D" transform="translate(324,339)"/>
<path d="M0 0 C0.33 0 0.66 0 1 0 C1.55353075 15.92938497 1.55353075 15.92938497 -2 22 C-2.66 22 -3.32 22 -4 22 C-3.79503906 21.0821875 -3.59007813 20.164375 -3.37890625 19.21875 C-1.97440691 12.82122192 -0.65196633 6.51966333 0 0 Z " fill="#C85451" transform="translate(128,300)"/>
<path d="M0 0 C2.84654556 1.43075057 5.42588963 3.12791973 8 5 C7.34 5.66 6.68 6.32 6 7 C4.95779297 6.29423828 4.95779297 6.29423828 3.89453125 5.57421875 C0.73688466 3.85690219 -1.76885255 3.31873535 -5.3125 2.8125 C-6.38113281 2.65394531 -7.44976562 2.49539063 -8.55078125 2.33203125 C-9.35902344 2.22246094 -10.16726563 2.11289062 -11 2 C-7.08303354 -0.12027098 -4.50392547 -0.52545797 0 0 Z " fill="#CC4A45" transform="translate(493,288)"/>
<path d="M0 0 C1.76923828 0.04060547 1.76923828 0.04060547 3.57421875 0.08203125 C4.47785156 0.11683594 5.38148438 0.15164063 6.3125 0.1875 C6.9725 1.8375 7.6325 3.4875 8.3125 5.1875 C7.80203125 4.86007812 7.2915625 4.53265625 6.765625 4.1953125 C3.44477963 2.83101616 0.63877432 2.9962727 -2.9375 3.0625 C-4.20078125 3.08054687 -5.4640625 3.09859375 -6.765625 3.1171875 C-7.72984375 3.14039063 -8.6940625 3.16359375 -9.6875 3.1875 C-6.99455929 -0.5165087 -4.35133403 -0.12924755 0 0 Z " fill="#CD3D38" transform="translate(404.6875,287.8125)"/>
<path d="M0 0 C0 3 0 3 -2.25 5.5 C-3.61125 6.7375 -3.61125 6.7375 -5 8 C-5.639375 8.598125 -6.27875 9.19625 -6.9375 9.8125 C-9.70365208 11.40513301 -11.86597201 11.21368373 -15 11 C-11.12785313 8.05752942 -7.13928768 5.29578676 -3.14453125 2.5234375 C-1.11786223 1.17351308 -1.11786223 1.17351308 0 0 Z " fill="#C34649" transform="translate(161,385)"/>
<path d="M0 0 C4.68904588 1.42300113 7.51610475 4.15696334 10.8125 7.625 C11.31458984 8.140625 11.81667969 8.65625 12.33398438 9.1875 C13.56296227 10.45159154 14.78246001 11.72488806 16 13 C15.67 13.99 15.34 14.98 15 16 C14.33613281 15.26394531 13.67226562 14.52789062 12.98828125 13.76953125 C12.10527344 12.79371094 11.22226563 11.81789063 10.3125 10.8125 C9.44238281 9.84957031 8.57226562 8.88664062 7.67578125 7.89453125 C5.17572259 5.19008824 2.62218928 2.58439196 0 0 Z " fill="#C94B49" transform="translate(156,250)"/>
<path d="M0 0 C4.54805635 -0.17835515 7.8794254 0.00214565 12 2 C12 2.66 12 3.32 12 4 C12.99 4 13.98 4 15 4 C14.67 4.99 14.34 5.98 14 7 C12.22769249 6.2116391 10.45720466 5.41918653 8.6875 4.625 C7.70136719 4.18414062 6.71523437 3.74328125 5.69921875 3.2890625 C3 2 3 2 0 0 Z " fill="#D44F4B" transform="translate(134,238)"/>
<path d="M0 0 C0.78375 0.04125 1.5675 0.0825 2.375 0.125 C2.045 1.445 1.715 2.765 1.375 4.125 C0.385 4.125 -0.605 4.125 -1.625 4.125 C-1.955 5.115 -2.285 6.105 -2.625 7.125 C-1.305 6.795 0.015 6.465 1.375 6.125 C1.375 7.115 1.375 8.105 1.375 9.125 C-0.275 8.795 -1.925 8.465 -3.625 8.125 C-4.25 5.25 -4.25 5.25 -4.625 2.125 C-2.625 0.125 -2.625 0.125 0 0 Z " fill="#946962" transform="translate(607.625,332.875)"/>
<path d="M0 0 C1.9375 0.3125 1.9375 0.3125 4 1 C4.33 1.99 4.66 2.98 5 4 C5.33 2.68 5.66 1.36 6 0 C6.66 0 7.32 0 8 0 C8 1.98 8 3.96 8 6 C5.39417629 6.93065133 4.35801776 7.14917407 1.75 6.0625 C1.1725 5.711875 0.595 5.36125 0 5 C0 3.35 0 1.7 0 0 Z " fill="#E4B9B6" transform="translate(154,328)"/>
<path d="M0 0 C0.33 0 0.66 0 1 0 C1.0825 0.721875 1.165 1.44375 1.25 2.1875 C2.14750201 5.55313254 3.7114278 7.41612816 6 10 C5.01 10 4.02 10 3 10 C2.67 11.32 2.34 12.64 2 14 C0.09391902 10.78817851 -0.22266247 8.46117397 -0.125 4.75 C-0.09792969 3.41195313 -0.09792969 3.41195313 -0.0703125 2.046875 C-0.04710937 1.37140625 -0.02390625 0.6959375 0 0 Z " fill="#C35652" transform="translate(474,310)"/>
<path d="M0 0 C0.66 0.33 1.32 0.66 2 1 C-1.96 4.96 -5.92 8.92 -10 13 C-10 9.28115772 -9.1259934 8.63852271 -6.6875 5.9375 C-5.76517578 4.89916016 -5.76517578 4.89916016 -4.82421875 3.83984375 C-3 2 -3 2 0 0 Z " fill="#FEE6E4" transform="translate(468,294)"/>
<path d="M0 0 C0.66 0 1.32 0 2 0 C2 0.66 2 1.32 2 2 C2.66 2 3.32 2 4 2 C4 3.98 4 5.96 4 8 C4.99 8.33 5.98 8.66 7 9 C6.01 11.64 5.02 14.28 4 17 C3.67 17 3.34 17 3 17 C2.92652344 15.78763672 2.92652344 15.78763672 2.8515625 14.55078125 C2.73941406 12.94783203 2.73941406 12.94783203 2.625 11.3125 C2.55539062 10.25675781 2.48578125 9.20101563 2.4140625 8.11328125 C2.01239911 5.09322731 1.25930981 2.75921946 0 0 Z " fill="#B34C47" transform="translate(413,293)"/>
<path d="M0 0 C0.66 0.33 1.32 0.66 2 1 C2 1.66 2 2.32 2 3 C2.66 3 3.32 3 4 3 C4.66 5.64 5.32 8.28 6 11 C5.34 11 4.68 11 4 11 C2.375 8.5 2.375 8.5 1 6 C0.34 6.66 -0.32 7.32 -1 8 C-0.67 5.36 -0.34 2.72 0 0 Z " fill="#CC4544" transform="translate(328,323)"/>
<path d="M0 0 C1.670625 0.061875 1.670625 0.061875 3.375 0.125 C2.385 0.785 1.395 1.445 0.375 2.125 C-2.75795461 4.67052562 -5.84589925 7.19150477 -8.625 10.125 C-8.625 8.475 -8.625 6.825 -8.625 5.125 C-7.635 5.125 -6.645 5.125 -5.625 5.125 C-5.625 4.135 -5.625 3.145 -5.625 2.125 C-3.625 0.125 -3.625 0.125 0 0 Z " fill="#C64442" transform="translate(428.625,289.875)"/>
<path d="M0 0 C0.66 0 1.32 0 2 0 C2 0.66 2 1.32 2 2 C2.66 2 3.32 2 4 2 C6.71391278 6.77357872 8.56561146 10.34388537 8 16 C5.9105012 12.8657518 4.43554114 9.73890554 2.875 6.3125 C2.33617187 5.13300781 1.79734375 3.95351563 1.2421875 2.73828125 C0.83226562 1.83464844 0.42234375 0.93101562 0 0 Z " fill="#D04B4A" transform="translate(179,277)"/>
<path d="M0 0 C-1.29047599 3.87142798 -3.01142726 4.72332925 -6.3125 7.0625 C-7.27800781 7.75472656 -8.24351563 8.44695312 -9.23828125 9.16015625 C-11.45786883 10.63883482 -13.58233028 11.8916621 -16 13 C-12.5265095 8.40602869 -6.16672956 0 0 0 Z " fill="#894D4B" transform="translate(62,242)"/>
<path d="M0 0 C0.33 0 0.66 0 1 0 C0.47462276 5.0302076 -0.10594786 10.01885239 -1 15 C0.32 15.33 1.64 15.66 3 16 C0.69 16 -1.62 16 -4 16 C-2.68 10.72 -1.36 5.44 0 0 Z " fill="#BA5956" transform="translate(87,319)"/>
<path d="M0 0 C4.455 0.99 4.455 0.99 9 2 C9 2.66 9 3.32 9 4 C6.69 4 4.38 4 2 4 C2.33 5.65 2.66 7.3 3 9 C2.01 8.34 1.02 7.68 0 7 C-0.1875 3.375 -0.1875 3.375 0 0 Z " fill="#FBDDDA" transform="translate(355,310)"/>
<path d="M0 0 C0.66 0 1.32 0 2 0 C0.52278578 3.45201639 -1.43794001 5.64961936 -4.125 8.25 C-4.84945313 8.95640625 -5.57390625 9.6628125 -6.3203125 10.390625 C-6.87460937 10.92171875 -7.42890625 11.4528125 -8 12 C-8 8.24111186 -7.049166 7.58681685 -4.5625 4.875 C-3.92441406 4.17117188 -3.28632813 3.46734375 -2.62890625 2.7421875 C-1.76410115 1.81724008 -0.89538137 0.89538137 0 0 Z " fill="#FDE8E7" transform="translate(300,293)"/>
<path d="M0 0 C0.39058594 0.49886719 0.78117187 0.99773437 1.18359375 1.51171875 C-2.24330261 2.65401754 -4.42742843 2.42032951 -8.00390625 2.07421875 C-9.63392578 1.92146484 -9.63392578 1.92146484 -11.296875 1.765625 C-12.54404297 1.63994141 -12.54404297 1.63994141 -13.81640625 1.51171875 C-11.38154018 -0.92314732 -10.24215519 -0.93037938 -6.87890625 -1.30078125 C-6.00363281 -1.41035156 -5.12835938 -1.51992188 -4.2265625 -1.6328125 C-1.81640625 -1.48828125 -1.81640625 -1.48828125 0 0 Z " fill="#D03C36" transform="translate(316.81640625,288.48828125)"/>
<path d="M0 0 C0.66 0.33 1.32 0.66 2 1 C1.01 2.485 1.01 2.485 0 4 C-0.66 4 -1.32 4 -2 4 C-2 4.66 -2 5.32 -2 6 C-4.31 7.32 -6.62 8.64 -9 10 C-9 9.01 -9 8.02 -9 7 C-7.28515625 5.4296875 -7.28515625 5.4296875 -5.0625 3.875 C-4.33160156 3.35679687 -3.60070313 2.83859375 -2.84765625 2.3046875 C-2.23792969 1.87414062 -1.62820312 1.44359375 -1 1 C-0.67 0.67 -0.34 0.34 0 0 Z " fill="#EAD7D4" transform="translate(52,250)"/>
<path d="M0 0 C5.28 0.33 10.56 0.66 16 1 C16 1.66 16 2.32 16 3 C16.99 3.33 17.98 3.66 19 4 C15.58123361 5.7093832 11.93878035 3.95633777 8.375 3.0625 C7.57320313 2.86720703 6.77140625 2.67191406 5.9453125 2.47070312 C3.96201453 1.98668398 1.98080066 1.49413978 0 1 C0 0.67 0 0.34 0 0 Z " fill="#CE5853" transform="translate(115,233)"/>
<path d="M0 0 C1.08152344 -0.01417969 2.16304688 -0.02835937 3.27734375 -0.04296875 C6.0625 0.1875 6.0625 0.1875 8.0625 2.1875 C5.46070337 3.48839831 3.4655812 3.35590078 0.5625 3.375 C-0.4171875 3.38917969 -1.396875 3.40335937 -2.40625 3.41796875 C-4.9375 3.1875 -4.9375 3.1875 -6.9375 1.1875 C-5.13003866 -0.61996134 -2.43304219 0.01446517 0 0 Z " fill="#B53735" transform="translate(352.9375,343.8125)"/>
<path d="M0 0 C0.66 0 1.32 0 2 0 C0.27933894 5.44876003 -1.84705349 10.71169451 -4 16 C-5.41131097 12.23948152 -4.5449072 9.97977756 -3.125 6.3125 C-2.75632812 5.33925781 -2.38765625 4.36601562 -2.0078125 3.36328125 C-1 1 -1 1 0 0 Z " fill="#BC4443" transform="translate(507,315)"/>
<path d="M0 0 C0 2 0 2 -1.64453125 3.69140625 C-2.35996094 4.30886719 -3.07539062 4.92632812 -3.8125 5.5625 C-4.87404297 6.49255859 -4.87404297 6.49255859 -5.95703125 7.44140625 C-8 9 -8 9 -11 10 C-9.63088196 6.8510285 -8.1247864 4.9521513 -5.5 2.75 C-4.8915625 2.22921875 -4.283125 1.7084375 -3.65625 1.171875 C-2 0 -2 0 0 0 Z " fill="#FDE8E6" transform="translate(574,292)"/>
<path d="M0 0 C0.33 0 0.66 0 1 0 C1.33 4.62 1.66 9.24 2 14 C-1 11 -1 11 -1.328125 8.80859375 C-1.30234375 8.02613281 -1.2765625 7.24367188 -1.25 6.4375 C-1.23453125 5.65246094 -1.2190625 4.86742187 -1.203125 4.05859375 C-1 2 -1 2 0 0 Z " fill="#C94B4E" transform="translate(18,319)"/>
<path d="M0 0 C1.45350668 3.87601781 1.12977046 8.07001276 0 12 C-1.546875 13.74609375 -1.546875 13.74609375 -3 15 C-2.22095672 4.44191344 -2.22095672 4.44191344 0 0 Z " fill="#BA4342" transform="translate(525,313)"/>
<path d="M0 0 C1.67542976 0.28604898 3.34385343 0.61781233 5 1 C5 4.3 5 7.6 5 11 C4.34 10.67 3.68 10.34 3 10 C3 7.36 3 4.72 3 2 C1.68 1.67 0.36 1.34 -1 1 C-0.67 0.67 -0.34 0.34 0 0 Z " fill="#B23332" transform="translate(393,306)"/>
<path d="M0 0 C0.99 0.495 0.99 0.495 2 1 C1.67 1.99 1.34 2.98 1 4 C3.97 4 6.94 4 10 4 C9.01 4.99 8.02 5.98 7 7 C1.56521739 6.56521739 1.56521739 6.56521739 0 5 C-0.04063832 3.33382885 -0.042721 1.66611905 0 0 Z " fill="#CB504C" transform="translate(477,306)"/>
<path d="M0 0 C0.66 0 1.32 0 2 0 C3.95322513 2.31493349 5.01430369 4.03271325 4.96875 7.11328125 C4.71648561 9.08584862 4.3644814 11.04505431 4 13 C3.01 12.67 2.02 12.34 1 12 C1.01740234 11.07767578 1.01740234 11.07767578 1.03515625 10.13671875 C1.04417969 9.32847656 1.05320312 8.52023437 1.0625 7.6875 C1.07410156 6.88699219 1.08570313 6.08648437 1.09765625 5.26171875 C1.09657855 2.83138666 1.09657855 2.83138666 0 0 Z " fill="#CC4C4A" transform="translate(500,295)"/>
<path d="M0 0 C0.66 0.33 1.32 0.66 2 1 C-0.97 3.97 -3.94 6.94 -7 10 C-7.33 9.01 -7.66 8.02 -8 7 C-7.34 6.01 -6.68 5.02 -6 4 C-5.34 4 -4.68 4 -4 4 C-4 3.34 -4 2.68 -4 2 C-2.125 0.9375 -2.125 0.9375 0 0 Z " fill="#C23A38" transform="translate(45,248)"/>
<path d="M0 0 C0 3.96130371 -1.34877125 4.82914401 -4 7.6875 C-4.7425 8.49574219 -5.485 9.30398438 -6.25 10.13671875 C-6.8275 10.75160156 -7.405 11.36648438 -8 12 C-8.66 11.34 -9.32 10.68 -10 10 C-9.0925 9.278125 -8.185 8.55625 -7.25 7.8125 C-4.4298006 5.47347206 -2.19093342 2.94933345 0 0 Z " fill="#985956" transform="translate(168,371)"/>
<path d="M0 0 C0.99 0.33 1.98 0.66 3 1 C0.14723863 3.93200474 -2.65079784 6.64315404 -6 9 C-6 7.68 -6 6.36 -6 5 C-5.01 5 -4.02 5 -3 5 C-3 4.01 -3 3.02 -3 2 C-2.01 2 -1.02 2 0 2 C0 1.34 0 0.68 0 0 Z " fill="#C64B46" transform="translate(255,293)"/>
<path d="M0 0 C0.99 0.99 1.98 1.98 3 3 C-3.93 2.505 -3.93 2.505 -11 2 C-6.74130098 -0.12934951 -4.6658917 -0.42417197 0 0 Z " fill="#C84E49" transform="translate(371,288)"/>
<path d="M0 0 C-3.96 1.98 -7.92 3.96 -12 6 C-12.66 5.34 -13.32 4.68 -14 4 C-12.23494565 3.13395466 -10.46271926 2.28251358 -8.6875 1.4375 C-7.70136719 0.96183594 -6.71523437 0.48617187 -5.69921875 -0.00390625 C-3 -1 -3 -1 0 0 Z " fill="#F9B0B0" transform="translate(76,234)"/>
<path d="M0 0 C0 0.66 0 1.32 0 2 C-4.74354436 4.22656164 -8.72250715 5.46148032 -14 6 C-14 5.34 -14 4.68 -14 4 C-12.7625 3.71125 -11.525 3.4225 -10.25 3.125 C-6.80894357 2.2738553 -3.44453207 0 0 0 Z " fill="#D45A5A" transform="translate(146,396)"/>
<path d="M0 0 C1.79068573 2.6860286 2.66055791 4.6626589 3.625 7.6875 C3.88539062 8.49574219 4.14578125 9.30398438 4.4140625 10.13671875 C4.60742188 10.75160156 4.80078125 11.36648438 5 12 C3.0625 11.0625 3.0625 11.0625 1 9 C0.33825175 6.0141919 0.12794052 3.05138131 0 0 Z " fill="#C24E4D" transform="translate(24,344)"/>
<path d="M0 0 C0.66 0 1.32 0 2 0 C1.67 2.97 1.34 5.94 1 9 C0.34 9 -0.32 9 -1 9 C-1.09765625 2.84765625 -1.09765625 2.84765625 -1 1 C-0.67 0.67 -0.34 0.34 0 0 Z " fill="#BD3C3B" transform="translate(450,318)"/>
<path d="M0 0 C6.75 -0.125 6.75 -0.125 9 1 C8.67 1.66 8.34 2.32 8 3 C7.071875 2.95875 6.14375 2.9175 5.1875 2.875 C1.84190281 2.72863661 1.84190281 2.72863661 -1 5 C-0.67 3.35 -0.34 1.7 0 0 Z " fill="#C9514C" transform="translate(119,296)"/>
<path d="M0 0 C0.99 0 1.98 0 3 0 C3 1.32 3 2.64 3 4 C3.66 4 4.32 4 5 4 C7 7 7 7 6.625 9.1875 C6.41875 9.785625 6.2125 10.38375 6 11 C4.9944239 9.54550599 3.99569565 8.08627557 3 6.625 C2.443125 5.81289063 1.88625 5.00078125 1.3125 4.1640625 C0 2 0 2 0 0 Z " fill="#D04E4D" transform="translate(172,266)"/>
<path d="M0 0 C0.33 0 0.66 0 1 0 C1.08159574 4.16138263 0.98248524 7.9472484 0 12 C-0.66 12 -1.32 12 -2 12 C-3.12377697 8.69564916 -2.89554742 6.9493138 -1.5625 3.75 C-1.27503906 3.04359375 -0.98757813 2.3371875 -0.69140625 1.609375 C-0.46324219 1.07828125 -0.23507812 0.5471875 0 0 Z " fill="#C93C3D" transform="translate(260,333)"/>
<path d="M0 0 C0.99 0.33 1.98 0.66 3 1 C3 3.97 3 6.94 3 10 C0 7 0 7 -0.1875 3.3125 C-0.125625 2.219375 -0.06375 1.12625 0 0 Z " fill="#B33737" transform="translate(328,316)"/>
<path d="M0 0 C2.97 0 5.94 0 9 0 C5.71536341 2.18975773 2.79303725 2.99806563 -1 4 C-0.67 2.68 -0.34 1.36 0 0 Z " fill="#C53F39" transform="translate(259,290)"/>
<path d="M0 0 C0.33 0.66 0.66 1.32 1 2 C1.66 2 2.32 2 3 2 C1.515 7.445 1.515 7.445 0 13 C-0.33 13 -0.66 13 -1 13 C-0.67 8.71 -0.34 4.42 0 0 Z " fill="#9A524E" transform="translate(558,302)"/>
<path d="M0 0 C0.99 0.33 1.98 0.66 3 1 C0.03 4.96 0.03 4.96 -3 9 C-4 7 -4 7 -3.1875 4.5 C-2 2 -2 2 0 0 Z " fill="#C03B3A" transform="translate(338,298)"/>
<path d="M0 0 C1.32 0 2.64 0 4 0 C4 1.98 4 3.96 4 6 C2.35 6 0.7 6 -1 6 C-0.67 4.68 -0.34 3.36 0 2 C0.99 2.33 1.98 2.66 3 3 C3 2.34 3 1.68 3 1 C2.01 0.67 1.02 0.34 0 0 Z " fill="#F7DBD1" transform="translate(606,334)"/>
<path d="M0 0 C0.66 0.66 1.32 1.32 2 2 C1.7578125 4.3828125 1.7578125 4.3828125 1.125 7.125 C0.92132812 8.03507812 0.71765625 8.94515625 0.5078125 9.8828125 C0.34023438 10.58148438 0.17265625 11.28015625 0 12 C-0.33 12 -0.66 12 -1 12 C-1.02687279 10.18757948 -1.04633715 8.37504767 -1.0625 6.5625 C-1.07410156 5.55316406 -1.08570313 4.54382813 -1.09765625 3.50390625 C-1 1 -1 1 0 0 Z " fill="#C44E50" transform="translate(534,320)"/>
<path d="M0 0 C1.98 0 3.96 0 6 0 C6 2.31 6 4.62 6 7 C5.67 7 5.34 7 5 7 C5 5.02 5 3.04 5 1 C3.02 2.32 1.04 3.64 -1 5 C-0.67 3.35 -0.34 1.7 0 0 Z " fill="#D63539" transform="translate(423,308)"/>
<path d="M0 0 C0.66 0.33 1.32 0.66 2 1 C-2.75 5.875 -2.75 5.875 -5 7 C-4.60196439 4.11424181 -4.20990931 3.17810487 -1.9375 1.25 C-1.298125 0.8375 -0.65875 0.425 0 0 Z " fill="#B83E43" transform="translate(124,284)"/>
<path d="M0 0 C0.99 0.33 1.98 0.66 3 1 C-0.465 3.97 -0.465 3.97 -4 7 C-4 4 -4 4 -2 1.8125 C-1.34 1.214375 -0.68 0.61625 0 0 Z " fill="#FAE0E1" transform="translate(168,376)"/>
<path d="M0 0 C-0.75 6.625 -0.75 6.625 -3 10 C-2.67 7.69 -2.34 5.38 -2 3 C-2.99 2.67 -3.98 2.34 -5 2 C-2 0 -2 0 0 0 Z " fill="#F9CFCE" transform="translate(500,321)"/>
<path d="M0 0 C0.66 0 1.32 0 2 0 C1.67 2.97 1.34 5.94 1 9 C0.34 9 -0.32 9 -1 9 C-0.67 6.03 -0.34 3.06 0 0 Z " fill="#BE3F3C" transform="translate(147,318)"/>
<path d="M0 0 C1.21236328 0.04060547 1.21236328 0.04060547 2.44921875 0.08203125 C3.06410156 0.11683594 3.67898438 0.15164063 4.3125 0.1875 C0.27957255 2.4219598 -3.13717434 2.73246743 -7.6875 3.1875 C-5.26849268 0.20484049 -3.789448 -0.16475861 0 0 Z " fill="#CB3B36" transform="translate(481.6875,287.8125)"/>
<path d="M0 0 C3.73487777 0.4979837 5.81237635 0.87491756 9 3 C9 3.66 9 4.32 9 5 C5.22454612 3.90931332 2.52956528 3.0916909 0 0 Z " fill="#C14342" transform="translate(61,391)"/>
<path d="M0 0 C0.66 0 1.32 0 2 0 C2 2.64 2 5.28 2 8 C1.01 7.34 0.02 6.68 -1 6 C-1.25 3.4375 -1.25 3.4375 -1 1 C-0.67 0.67 -0.34 0.34 0 0 Z " fill="#C85354" transform="translate(146,327)"/>
<path d="M0 0 C0 1.32 0 2.64 0 4 C-1.65 4.66 -3.3 5.32 -5 6 C-4.625 3.5625 -4.625 3.5625 -4 1 C-2 0 -2 0 0 0 Z " fill="#BC403A" transform="translate(375,318)"/>
<path d="M0 0 C0.66 0 1.32 0 2 0 C0.70700306 2.88437779 -0.65941363 4.87219421 -3 7 C-3.66 6.67 -4.32 6.34 -5 6 C-3.38405168 3.95880212 -1.7143618 1.95927063 0 0 Z " fill="#F9DAD9" transform="translate(342,297)"/>
<path d="M0 0 C2.64 0 5.28 0 8 0 C8.66 1.65 9.32 3.3 10 5 C5.05 3.02 5.05 3.02 0 1 C0 0.67 0 0.34 0 0 Z " fill="#CD504C" transform="translate(584,290)"/>
<path d="M0 0 C2.00720923 0.28674418 4.0085944 0.61866701 6 1 C6.33 1.99 6.66 2.98 7 4 C3.62537285 3.45276317 1.91765 2.9451 -1 1 C-0.67 0.67 -0.34 0.34 0 0 Z " fill="#E84943" transform="translate(73,230)"/>
<path d="M0 0 C0.99 0.33 1.98 0.66 3 1 C0.82575883 3.50037734 -0.73045798 4.43628586 -4 5 C-3 2 -3 2 0 0 Z " fill="#FBCCCF" transform="translate(150,390)"/>
<path d="M0 0 C0.66 0 1.32 0 2 0 C1.75 2.375 1.75 2.375 1 5 C-1.0625 6.3125 -1.0625 6.3125 -3 7 C-1.125 2.25 -1.125 2.25 0 0 Z " fill="#D3373A" transform="translate(114,300)"/>
<path d="M0 0 C2.875 0.3125 2.875 0.3125 6 1 C6.66 1.99 7.32 2.98 8 4 C4.79604584 4 2.90600261 3.25664978 0 2 C0 1.34 0 0.68 0 0 Z " fill="#CF4D49" transform="translate(548,289)"/>
</svg>
